<?xml version="1.0" encoding="UTF-8" standalone="no"?>
<svg width="885px" height="280px" viewBox="0 0 885 280" version="1.1" xmlns="http://www.w3.org/2000/svg" xmlns:xlink="http://www.w3.org/1999/xlink" xmlns:sketch="http://www.bohemiancoding.com/sketch/ns">
    <!-- Generator: Sketch 3.3.2 (12043) - http://www.bohemiancoding.com/sketch -->
    <title>errorpage-image</title>
    <desc>Created with Sketch.</desc>
    <defs></defs>
    <g id="Page-1" stroke="none" stroke-width="1" fill="none" fill-rule="evenodd" sketch:type="MSPage">
        <g id="LEFT" sketch:type="MSLayerGroup">
            <path d="M0.480593748,198.943414 L126.635851,88.4889451 L253.431426,198.561049 L0.480593748,198.943414 Z" id="Rectangle-72" fill="#F2F2F2" sketch:type="MSShapeGroup"></path>
            <path d="M122.272841,196.698005 L209.893259,124.228471 L282.645014,196.98023 L122.272841,196.698005 Z" id="Rectangle-72" fill="#F2F2F2" sketch:type="MSShapeGroup"></path>
            <path d="M266.971125,194.889909 L306.252532,151.48783 L341.126026,194.942039 L266.971125,194.889909 Z" id="Rectangle-72" fill="#F2F2F2" sketch:type="MSShapeGroup"></path>
            <rect id="Rectangle-30" fill="#E6E6E6" sketch:type="MSShapeGroup" transform="translate(358.715907, 231.839987) rotate(-180.000000) translate(-358.715907, -231.839987) " x="336.20951" y="227.838271" width="45.0127927" height="8.00343189" rx="10.752"></rect>
            <path d="M320.297223,202.216041 L425.397369,202.216041 C427.624025,202.216041 429.429086,200.413626 429.429086,198.190234 C429.429086,195.966843 427.624025,194.164428 425.397369,194.164428 L320.297223,194.164428 C318.070568,194.164428 316.265507,195.966843 316.265507,198.190234 C316.265507,200.413626 318.070568,202.216041 320.297223,202.216041 L320.297223,202.216041 Z" id="Shape" fill="#F4F4F4" sketch:type="MSShapeGroup"></path>
            <path d="M409.666946,202.216041 L445.606043,202.216041 C447.832698,202.216041 449.63776,200.413626 449.63776,198.190234 C449.63776,195.966843 447.832698,194.164428 445.606043,194.164428 L409.666946,194.164428 C407.44029,194.164428 405.635229,195.966843 405.635229,198.190234 C405.635229,200.413626 407.44029,202.216041 409.666946,202.216041 L409.666946,202.216041 Z" id="Shape" fill="#E7E7E7" sketch:type="MSShapeGroup"></path>
            <path d="M321.931596,202.216041 C324.158251,202.216041 325.963312,200.413626 325.963312,198.190234 C325.963312,195.966843 324.158251,194.164428 321.931596,194.164428 L80.6696201,194.960852 C78.4429644,194.960852 76.6379033,196.763267 76.6379033,198.986658 C76.6379033,201.21005 78.4429644,203.012465 80.6696201,203.012465 L321.931596,202.216041 Z" id="Shape" fill="#E6E6E6" sketch:type="MSShapeGroup"></path>
            <path d="M457.161015,219.080242 L491.875509,213.747948 L487.392691,249.398083 L457.161015,219.080242 Z" id="Rectangle-72" fill="#E6E6E6" sketch:type="MSShapeGroup" transform="translate(474.518262, 231.573016) rotate(-45.000000) translate(-474.518262, -231.573016) "></path>
            <path d="M488.494756,201.670529 L593.800622,201.670529 C596.027277,201.670529 597.832338,199.868114 597.832338,197.644723 C597.832338,195.421331 596.027277,193.618916 593.800622,193.618916 L488.494756,193.618916 C486.268101,193.618916 484.46304,195.421331 484.46304,197.644723 C484.46304,199.868114 486.268101,201.670529 488.494756,201.670529 L488.494756,201.670529 Z" id="Shape" fill="#F4F4F4" sketch:type="MSShapeGroup"></path>
            <path d="M775.55963,201.670529 L880.865495,201.670529 C883.092151,201.670529 884.897212,199.868114 884.897212,197.644723 C884.897212,195.421331 883.092151,193.618916 880.865495,193.618916 L775.55963,193.618916 C773.332974,193.618916 771.527913,195.421331 771.527913,197.644723 C771.527913,199.868114 773.332974,201.670529 775.55963,201.670529 L775.55963,201.670529 Z" id="Shape" fill="#E6E6E6" sketch:type="MSShapeGroup"></path>
            <path d="M798.598832,235.889884 C800.825487,235.889884 802.630549,234.087469 802.630549,231.864077 C802.630549,229.640686 800.825487,227.838271 798.598832,227.838271 L588.617383,227.838271 C586.390727,227.838271 584.585666,229.640686 584.585666,231.864077 C584.585666,234.087469 586.390727,235.889884 588.617383,235.889884 L798.598832,235.889884 Z" id="Shape" fill="#F3F3F3" sketch:type="MSShapeGroup"></path>
            <rect id="Rectangle-30" fill="#F4F4F4" sketch:type="MSShapeGroup" transform="translate(473.382595, 231.839987) rotate(-180.000000) translate(-473.382595, -231.839987) " x="424.90728" y="227.838271" width="96.9506304" height="8.00343189" rx="10.752"></rect>
            <rect id="Rectangle-30" fill="#E6E6E6" sketch:type="MSShapeGroup" transform="translate(159.733261, 232.510955) rotate(-180.000000) translate(-159.733261, -232.510955) " x="137.226865" y="228.509239" width="45.0127927" height="8.00343189" rx="10.752"></rect>
            <path d="M161.348653,236.560852 L259.456005,236.560852 C261.682661,236.560852 263.487722,234.758437 263.487722,232.535045 C263.487722,230.311654 261.682661,228.509239 259.456005,228.509239 L161.348653,228.509239 C159.121997,228.509239 157.316936,230.311654 157.316936,232.535045 C157.316936,234.758437 159.121997,236.560852 161.348653,236.560852 L161.348653,236.560852 Z" id="Shape" fill="#F4F4F4" sketch:type="MSShapeGroup"></path>
            <rect id="Rectangle-30" fill="#F4F4F4" sketch:type="MSShapeGroup" transform="translate(339.663988, 265.388374) rotate(-180.000000) translate(-339.663988, -265.388374) " x="291.188673" y="261.386658" width="96.9506304" height="8.00343189" rx="10.752"></rect>
            <rect id="Rectangle-30" fill="#F4F4F4" sketch:type="MSShapeGroup" transform="translate(173.518925, 265.388374) rotate(-180.000000) translate(-173.518925, -265.388374) " x="93.634549" y="261.386658" width="159.768751" height="8.00343189" rx="10.752"></rect>
            <rect id="Rectangle-30" fill="#F4F4F4" sketch:type="MSShapeGroup" transform="translate(388.281830, 265.388374) rotate(-180.000000) translate(-388.281830, -265.388374) " x="365.775434" y="261.386658" width="45.0127927" height="8.00343189" rx="10.752"></rect>
            <path d="M404.500656,172.147948 L407.772484,172.147948 C409.999139,172.147948 411.804201,170.345533 411.804201,168.122142 C411.804201,165.89875 409.999139,164.096335 407.772484,164.096335 L404.500656,164.096335 C402.274,164.096335 400.468939,165.89875 400.468939,168.122142 C400.468939,170.345533 402.274,172.147948 404.500656,172.147948 L404.500656,172.147948 Z" id="Shape" fill="#F4F4F4" sketch:type="MSShapeGroup"></path>
            <path d="M253.241932,172.147948 L337.138792,172.147948 C339.365448,172.147948 341.170509,170.345533 341.170509,168.122142 C341.170509,165.89875 339.365448,164.096335 337.138792,164.096335 L253.241932,164.096335 C251.015277,164.096335 249.210216,165.89875 249.210216,168.122142 C249.210216,170.345533 251.015277,172.147948 253.241932,172.147948 L253.241932,172.147948 Z" id="Shape" fill="#E6E6E6" sketch:type="MSShapeGroup"></path>
            <path d="M426.84449,172.147948 L467.251636,172.147948 C469.478292,172.147948 471.283353,170.345533 471.283353,168.122142 C471.283353,165.89875 469.478292,164.096335 467.251636,164.096335 L426.84449,164.096335 C424.617834,164.096335 422.812773,165.89875 422.812773,168.122142 C422.812773,170.345533 424.617834,172.147948 426.84449,172.147948 L426.84449,172.147948 Z" id="Shape" fill="#F4F4F4" sketch:type="MSShapeGroup"></path>
            <path d="M35.1566999,203.012465 L44.9974971,203.012465 C47.2241528,203.012465 49.0292139,201.21005 49.0292139,198.986658 C49.0292139,196.763267 47.2241528,194.960852 44.9974971,194.960852 L35.1566999,194.960852 C32.9300442,194.960852 31.1249831,196.763267 31.1249831,198.986658 C31.1249831,201.21005 32.9300442,203.012465 35.1566999,203.012465 L35.1566999,203.012465 Z" id="Shape" fill="#F4F4F4" sketch:type="MSShapeGroup"></path>
            <path d="M145.67941,170.806013 L182.953949,170.806013 C185.180605,170.806013 186.985666,169.003598 186.985666,166.780206 C186.985666,164.556815 185.180605,162.7544 182.953949,162.7544 L145.67941,162.7544 C143.452754,162.7544 141.647693,164.556815 141.647693,166.780206 C141.647693,169.003598 143.452754,170.806013 145.67941,170.806013 L145.67941,170.806013 Z" id="Shape" fill="#F4F4F4" sketch:type="MSShapeGroup"></path>
            <path d="M268.591666,76.6923924 C267.859542,74.6660338 267.460443,72.4804031 267.460443,70.2015682 C267.460443,59.6520634 276.013463,51.1 286.564148,51.1 C295.169697,51.1 302.446265,56.7894037 304.836804,64.6115588 C306.29892,64.0302966 307.893529,63.7107441 309.562783,63.7107441 C316.630717,63.7107441 322.36041,69.4397963 322.36041,76.5069403 C322.36041,76.5688614 322.35997,76.6306797 322.359093,76.6923924 L268.591666,76.6923924 Z" id="Oval-8" fill="#F2F2F2" sketch:type="MSShapeGroup"></path>
            <path d="M439.643758,35.7 C440.302268,34.0068788 440.663558,32.1653193 440.663558,30.2393854 C440.663558,21.9157383 433.915154,15.1680891 425.590576,15.1680891 C423.624538,15.1680891 421.746415,15.5444564 420.024342,16.2290642 C417.208777,7.01616878 408.638471,0.315217391 398.502898,0.315217391 C386.076354,0.315217391 376.00265,10.3877952 376.00265,22.8129495 C376.00265,23.0108393 376.005205,23.2081323 376.010284,23.4047974 C375.02855,23.1608461 374.001578,23.0313741 372.944363,23.0313741 C365.946892,23.0313741 360.274321,28.7033111 360.274321,35.7 L439.643758,35.7 Z" id="Oval-8" fill="#F4F4F4" sketch:type="MSShapeGroup"></path>
            <path d="M632.048421,76.6923924 C632.846247,74.6410696 633.283974,72.4099046 633.283974,70.0765145 C633.283974,59.9918928 625.107858,51.8166916 615.022108,51.8166916 C612.640129,51.8166916 610.364665,52.2726843 608.278265,53.1021296 C604.867032,41.9401277 594.483567,33.8215038 582.203684,33.8215038 C567.148144,33.8215038 554.943218,46.025065 554.943218,61.0789206 C554.943218,61.3186765 554.946314,61.5577094 554.952468,61.7959815 C553.763035,61.5004191 552.518794,61.3435557 551.237912,61.3435557 C542.760036,61.3435557 535.887359,68.215464 535.887359,76.6923924 L632.048421,76.6923924 Z" id="Oval-8" fill-opacity="0.1" fill="#000000" sketch:type="MSShapeGroup"></path>
            <path d="M692.884923,35.7 C693.351901,34.4993343 693.608107,33.1934046 693.608107,31.8276413 C693.608107,25.9249821 688.822521,21.1399313 682.919202,21.1399313 C681.524999,21.1399313 680.193141,21.4068297 678.971944,21.8923148 C676.975305,15.359051 670.897729,10.6071157 663.710155,10.6071157 C654.897953,10.6071157 647.754252,17.7500175 647.754252,26.5612335 C647.754252,26.7015657 647.756064,26.8414747 647.759666,26.9809385 C647.063476,26.807942 646.335206,26.7161278 645.585489,26.7161278 C640.623278,26.7161278 636.600612,30.7383444 636.600612,35.7 L692.884923,35.7 Z" id="Oval-8" fill-opacity="0.05" fill="#000000" sketch:type="MSShapeGroup"></path>
            <ellipse id="Oval-83" fill="#D8D8D8" sketch:type="MSShapeGroup" cx="233.806735" cy="196.988959" rx="15.403481" ry="15.4"></ellipse>
            <ellipse id="Oval-83" fill="#D8D8D8" sketch:type="MSShapeGroup" cx="390.733089" cy="119.264796" rx="8.13704309" ry="8.13520421"></ellipse>
            <ellipse id="Oval-83" fill="#D8D8D8" sketch:type="MSShapeGroup" cx="409.474832" cy="265.388374" rx="10.6047001" ry="10.6023036"></ellipse>
            <ellipse id="Oval-83" fill="#D8D8D8" sketch:type="MSShapeGroup" cx="719.644927" cy="227.838271" rx="10.6047001" ry="10.6023036"></ellipse>
            <ellipse id="Oval-83" fill="#D8D8D8" sketch:type="MSShapeGroup" cx="172.231918" cy="250.784354" rx="6.29441825" ry="6.29299579"></ellipse>
            <g id="Group" transform="translate(275.162184, 216.147335)" sketch:type="MSShapeGroup">
                <ellipse id="Oval-83" fill="#D8D8D8" cx="9.44844246" cy="54.4369414" rx="9.17863811" ry="9.17656384"></ellipse>
                <ellipse id="Oval-83" fill="#D8D8D8" cx="41.3526864" cy="45.2603775" rx="9.17863811" ry="9.17656384"></ellipse>
                <path d="M19.3055868,54.0074836 L19.3055868,15.0687532 C19.3055868,13.1357566 17.7382292,11.5687532 15.8047956,11.5687532 C13.8713621,11.5687532 12.3040045,13.1357566 12.3040045,15.0687532 L12.3040045,54.0074836 C12.3040045,55.9404803 13.8713621,57.5074836 15.8047956,57.5074836 C17.7382292,57.5074836 19.3055868,55.9404803 19.3055868,54.0074836 L19.3055868,54.0074836 Z" id="Shape" fill="#D8D8D8"></path>
                <path d="M51.479635,44.9782128 L51.479635,6.03948242 C51.479635,4.10648579 49.9122775,2.53948242 47.9788439,2.53948242 C46.0454103,2.53948242 44.4780528,4.10648579 44.4780528,6.03948242 L44.4780528,44.9782128 C44.4780528,46.9112094 46.0454103,48.4782128 47.9788439,48.4782128 C49.9122775,48.4782128 51.479635,46.9112094 51.479635,44.9782128 L51.479635,44.9782128 Z" id="Shape" fill="#D8D8D8"></path>
                <path d="M16.6637924,18.3775587 L49.4022977,7.09097015 C51.2301135,6.46083126 52.2009071,4.4686001 51.5706258,2.64119732 C50.9403444,0.813794539 48.9476629,-0.156779613 47.1198471,0.473359277 L14.3813418,11.7599478 C12.553526,12.3900867 11.5827325,14.3823178 12.2130138,16.2097206 C12.8432951,18.0371234 14.8359766,19.0076976 16.6637924,18.3775587 L16.6637924,18.3775587 Z" id="Shape" fill="#E6E6E6"></path>
                <path d="M17.2282494,29.6641472 L49.9667547,18.3775587 C51.7945705,17.7474198 52.7653641,15.7551886 52.1350827,13.9277858 C51.5048014,12.1003831 49.5121199,11.1298089 47.6843041,11.7599478 L14.9457988,23.0465363 C13.117983,23.6766752 12.1471894,25.6689064 12.7774708,27.4963092 C13.4077521,29.3237119 15.4004336,30.2942861 17.2282494,29.6641472 L17.2282494,29.6641472 Z" id="Shape" fill="#E6E6E6"></path>
            </g>
        </g>
    </g>
</svg>