<?xml version="1.0" encoding="UTF-8" standalone="no"?>
<svg width="1423px" height="424px" viewBox="0 0 1423 424" version="1.1" xmlns="http://www.w3.org/2000/svg" xmlns:xlink="http://www.w3.org/1999/xlink" xmlns:sketch="http://www.bohemiancoding.com/sketch/ns">
    <!-- Generator: Sketch 3.3.2 (12043) - http://www.bohemiancoding.com/sketch -->
    <title>right@3x</title>
    <desc>Created with Sketch.</desc>
    <defs></defs>
    <g id="Page-1" stroke="none" stroke-width="1" fill="none" fill-rule="evenodd" sketch:type="MSPage">
        <g id="illustration-melody" sketch:type="MSArtboardGroup" transform="translate(-1304.000000, -156.000000)">
            <g id="RIGHT" sketch:type="MSLayerGroup" transform="translate(1304.000000, 156.000000)">
                <g id="sun" transform="translate(716.138805, 0.098482)" sketch:type="MSShapeGroup">
                    <path d="M360.438339,300.569418 C360.94252,296.008442 361.201355,291.37352 361.201355,286.678143 C361.201355,217.630685 305.228386,161.65666 236.182229,161.65666 C167.136072,161.65666 111.163102,217.630685 111.163102,286.678143 C111.163102,291.37352 111.421938,296.008442 111.926119,300.569418 L360.438339,300.569418 Z" id="Oval-40" fill="#F3F3F3"></path>
                    <path d="M320.688903,300.569418 C321.031797,297.467495 321.207831,294.315281 321.207831,291.121951 C321.207831,244.162723 283.140572,206.094747 236.182229,206.094747 C189.223885,206.094747 151.156627,244.162723 151.156627,291.121951 C151.156627,294.315281 151.332661,297.467495 151.675555,300.569418 L320.688903,300.569418 Z" id="Oval-40" fill="#FFFFFF"></path>
                    <path d="M294.252969,297.282546 C294.493129,295.109978 294.616423,292.902185 294.616423,290.665596 C294.616423,257.775627 267.954337,231.113039 235.064988,231.113039 C202.175639,231.113039 175.513554,257.775627 175.513554,290.665596 C175.513554,292.902185 175.636848,295.109978 175.877008,297.282546 L294.252969,297.282546 Z" id="Oval-40" fill="#F4F4F4"></path>
                    <path d="M351.299197,286.573171 C351.299197,252.441624 336.353149,220.730277 310.898048,198.993266 C309.134579,197.487378 306.484264,197.696215 304.978403,199.459717 C303.472543,201.22322 303.681376,203.873585 305.444846,205.379473 C329.050839,225.537466 342.901606,254.924933 342.901606,286.573171 C342.901606,288.892145 344.781471,290.772045 347.100402,290.772045 C349.419332,290.772045 351.299197,288.892145 351.299197,286.573171 L351.299197,286.573171 Z M236.182229,171.454034 C219.288181,171.454034 202.901465,175.098421 187.896155,182.041204 C185.791575,183.014968 184.874853,185.510492 185.848599,187.615112 C186.822346,189.719731 189.317822,190.63647 191.422402,189.662706 C205.328044,183.228727 220.512224,179.851782 236.182229,179.851782 C238.501159,179.851782 240.381024,177.971882 240.381024,175.652908 C240.381024,173.333934 238.501159,171.454034 236.182229,171.454034 L236.182229,171.454034 Z M126.619795,251.148261 C122.953487,262.495946 121.065261,274.409552 121.065261,286.573171 C121.065261,288.892145 122.945126,290.772045 125.264056,290.772045 C127.582987,290.772045 129.462851,288.892145 129.462851,286.573171 C129.462851,275.288788 131.213028,264.246189 134.610653,253.730114 C135.323598,251.523457 134.11274,249.156642 131.906126,248.443683 C129.699511,247.730724 127.33274,248.941605 126.619795,251.148261 L126.619795,251.148261 Z" id="Shape" fill="#FFFFFF"></path>
                    <path d="M17.5316079,75.2427114 L117.252993,162.369353 C118.999305,163.895106 121.651814,163.716282 123.177539,161.969938 C124.703263,160.223594 124.524442,157.571035 122.778131,156.045281 L23.0567455,68.9186395 C21.3104342,67.3928861 18.657925,67.5717103 17.1322003,69.3180545 C15.6064757,71.0643988 15.7852966,73.716958 17.5316079,75.2427114 L17.5316079,75.2427114 Z" id="Shape" fill="#EAEAEA"></path>
                    <path d="M327.12844,180.156658 C301.598342,158.355604 269.197559,146.172389 234.926281,146.172389 C232.607351,146.172389 230.727486,148.052289 230.727486,150.371264 C230.727486,152.690238 232.607351,154.570138 234.926281,154.570138 C267.179345,154.570138 297.651524,166.028167 321.675238,186.542865 C323.438707,188.048754 326.089022,187.839917 327.594883,186.076415 C329.100743,184.312912 328.89191,181.662547 327.12844,180.156658 L327.12844,180.156658 Z M175.33968,159.23693 C139.46067,175.83773 111.894377,206.841243 99.7213885,244.518173 C99.0084429,246.724829 100.219301,249.091645 102.425915,249.804604 C104.63253,250.517563 106.999301,249.306682 107.712246,247.100026 C119.163348,211.657426 145.107885,182.477886 178.865927,166.858432 C180.970507,165.884668 181.887229,163.389144 180.913483,161.284524 C179.939737,159.179905 177.44426,158.263166 175.33968,159.23693 L175.33968,159.23693 Z" id="Shape" fill="#CACACA"></path>
                    <path d="M33.7380709,202.27814 L77.8254203,220.473262 C79.9689793,221.357922 82.4238223,220.337351 83.3084657,218.193751 C84.193109,216.050152 83.1725563,213.595263 81.0289974,212.710603 L36.941648,194.515481 C34.798089,193.630821 32.343246,194.651392 31.4586026,196.794992 C30.5739592,198.938591 31.594512,201.39348 33.7380709,202.27814 L33.7380709,202.27814 Z" id="Shape" fill="#F3F3F3"></path>
                    <path d="M286.333505,49.4078642 L266.039329,134.085163 C265.498858,136.340273 266.888813,138.606547 269.143881,139.147028 C271.398949,139.687509 273.66518,138.297527 274.205651,136.042417 L294.499828,51.3651189 C295.040299,49.1100087 293.650343,46.8437343 291.395276,46.3032534 C289.140208,45.7627724 286.873976,47.1527541 286.333505,49.4078642 L286.333505,49.4078642 Z" id="Shape" fill="#F3F3F3"></path>
                    <path d="M462.089109,144.604638 L369.715615,190.792255 C367.641501,191.829332 366.8008,194.351482 367.837857,196.425636 C368.874914,198.49979 371.397017,199.340507 373.471132,198.30343 L465.844626,152.115812 C467.91874,151.078736 468.759441,148.556585 467.722384,146.482431 C466.685327,144.408278 464.163224,143.567561 462.089109,144.604638 L462.089109,144.604638 Z" id="Shape" fill="#EAEAEA"></path>
                    <path d="M445.897646,2.39868074 L329.730979,159.156654 C328.35029,161.019788 328.74136,163.649447 330.604459,165.030162 C332.467557,166.410878 335.097167,166.0198 336.477856,164.156666 L452.644523,7.39869262 C454.025212,5.53555892 453.634142,2.90589984 451.771043,1.52518469 C449.907945,0.144469537 447.278335,0.535547039 445.897646,2.39868074 L445.897646,2.39868074 Z" id="Shape" fill="#F3F3F3"></path>
                    <path d="M4.19879518,275.376173 L75.2284137,275.376173 C77.5473442,275.376173 79.4272088,273.496273 79.4272088,271.177298 C79.4272088,268.858324 77.5473442,266.978424 75.2284137,266.978424 L4.19879518,266.978424 C1.87986463,266.978424 0,268.858324 0,271.177298 C0,273.496273 1.87986463,275.376173 4.19879518,275.376173 L4.19879518,275.376173 Z" id="Shape" fill="#F3F3F3"></path>
                    <path d="M386.361195,269.401518 L521.361195,269.401518" id="Line" stroke="#F4F4F4" stroke-width="9" stroke-linecap="round"></path>
                </g>
                <path d="M1415.27615,307.880059 C1417.67245,301.717455 1418.98717,295.014568 1418.98717,288.004575 C1418.98717,257.708259 1394.42996,233.148242 1364.1371,233.148242 C1356.98275,233.148242 1350.14833,234.518139 1343.88176,237.009967 C1333.63602,203.476975 1302.44896,179.086928 1265.56596,179.086928 C1220.34619,179.086928 1183.68832,215.748982 1183.68832,260.973918 C1183.68832,261.694195 1183.69762,262.4123 1183.7161,263.128119 C1180.1436,262.240188 1176.40649,261.768938 1172.55932,261.768938 C1147.09576,261.768938 1126.45346,282.413589 1126.45346,307.880058 L1415.27615,307.880058 Z" id="Oval-8" fill="#F4F4F4" sketch:type="MSShapeGroup"></path>
                <path d="M725.848832,130.393726 C727.061071,127.276184 727.726165,123.885322 727.726165,120.339102 C727.726165,106.818444 718.057936,95.5561805 705.258545,93.0901298 C699.638905,76.878803 684.235183,65.2397618 666.113328,65.2397618 C643.237516,65.2397618 624.693006,83.7863891 624.693006,106.664813 C624.693006,107.029187 624.69771,107.392463 624.70706,107.754582 C622.899803,107.305395 621.009268,107.066998 619.063059,107.066998 C606.181534,107.066998 595.738995,117.51073 595.738995,130.393726 L725.848832,130.393726 Z" id="Oval-8" fill-opacity="0.1" fill="#000000" sketch:type="MSShapeGroup"></path>
                <path d="M1201.21268,307.880058 C1202.68031,304.105738 1203.48552,300.000518 1203.48552,295.70721 C1203.48552,277.152065 1188.44532,262.110148 1169.89229,262.110148 C1165.51057,262.110148 1161.32479,262.949149 1157.4868,264.475283 C1151.21173,243.937818 1132.11105,229 1109.52185,229 C1081.82676,229 1059.37544,251.453876 1059.37544,279.152136 C1059.37544,279.593273 1059.38114,280.033081 1059.39246,280.471488 C1057.20446,279.92767 1054.91565,279.63905 1052.55943,279.63905 C1036.96413,279.63905 1024.32164,292.28298 1024.32164,307.880058 L1201.21268,307.880058 Z" id="Oval-8" fill="#F4F4F4" sketch:type="MSShapeGroup"></path>
                <rect id="Rectangle-30" fill="#E6E6E6" sketch:type="MSShapeGroup" transform="translate(1000.335487, 350.199981) rotate(-180.000000) translate(-1000.335487, -350.199981) " x="968.190758" y="344.483244" width="64.2894576" height="11.4334741" rx="15.36"></rect>
                <rect id="Rectangle-30" fill="#E6E6E6" sketch:type="MSShapeGroup" transform="translate(579.477989, 350.308896) rotate(-180.000000) translate(-579.477989, -350.308896) " x="547.33326" y="344.592159" width="64.2894576" height="11.4334741" rx="15.36"></rect>
                <path d="M945.464057,307.880058 L1095.57319,307.880058 C1098.75341,307.880058 1101.33149,305.30518 1101.33149,302.128906 C1101.33149,298.952633 1098.75341,296.377754 1095.57319,296.377754 L945.464057,296.377754 C942.283839,296.377754 939.705763,298.952633 939.705763,302.128906 C939.705763,305.30518 942.283839,307.880058 945.464057,307.880058 L945.464057,307.880058 Z" id="Shape" fill="#CACACA" sketch:type="MSShapeGroup"></path>
                <path d="M1073.10624,307.880058 L1124.4362,307.880058 C1127.61642,307.880058 1130.1945,305.30518 1130.1945,302.128906 C1130.1945,298.952633 1127.61642,296.377754 1124.4362,296.377754 L1073.10624,296.377754 C1069.92602,296.377754 1067.34794,298.952633 1067.34794,302.128906 C1067.34794,305.30518 1069.92602,307.880058 1073.10624,307.880058 L1073.10624,307.880058 Z" id="Shape" fill="#E7E7E7" sketch:type="MSShapeGroup"></path>
                <path d="M947.798347,307.880058 C950.978565,307.880058 953.556641,305.30518 953.556641,302.128906 C953.556641,298.952633 950.978565,296.377754 947.798347,296.377754 L603.216271,297.515502 C600.036053,297.515502 597.457977,300.090381 597.457977,303.266654 C597.457977,306.442928 600.036053,309.017806 603.216271,309.017806 L947.798347,307.880058 Z" id="Shape" fill="#E6E6E6" sketch:type="MSShapeGroup"></path>
                <path d="M560.367187,309.017807 C563.547405,309.017807 566.125481,306.442928 566.125481,303.266655 C566.125481,300.090381 563.547405,297.515503 560.367187,297.515503 L87.216271,297.515502 C84.0360531,297.515502 81.4579772,300.090381 81.4579772,303.266654 C81.4579772,306.442928 84.0360531,309.017806 87.216271,309.017806 L560.367187,309.017807 Z" id="Shape" fill="#F3F3F3" sketch:type="MSShapeGroup"></path>
                <path d="M304.078125,357.776785 C307.258343,357.776785 309.836419,355.201907 309.836419,352.025633 C309.836419,348.84936 307.258343,346.274481 304.078125,346.274481 L87.216271,346.274481 C84.0360531,346.274481 81.4579772,348.84936 81.4579772,352.025633 C81.4579772,355.201907 84.0360531,357.776785 87.216271,357.776785 L304.078125,357.776785 Z" id="Shape" fill="#E6E6E6" sketch:type="MSShapeGroup"></path>
                <path d="M1185.69195,307.100756 L1336.0949,307.100756 C1339.27512,307.100756 1341.85319,304.525877 1341.85319,301.349604 C1341.85319,298.17333 1339.27512,295.598452 1336.0949,295.598452 L1185.69195,295.598452 C1182.51173,295.598452 1179.93365,298.17333 1179.93365,301.349604 C1179.93365,304.525877 1182.51173,307.100756 1185.69195,307.100756 L1185.69195,307.100756 Z" id="Shape" fill="#D8D8D8" sketch:type="MSShapeGroup"></path>
                <rect id="Rectangle-30" fill="#E6E6E6" sketch:type="MSShapeGroup" transform="translate(716.138805, 351.158507) rotate(-180.000000) translate(-716.138805, -351.158507) " x="683.994076" y="345.44177" width="64.2894576" height="11.4334741" rx="15.36"></rect>
                <path d="M718.445986,356.944074 L858.567673,356.944074 C861.747891,356.944074 864.325967,354.369195 864.325967,351.192922 C864.325967,348.016648 861.747891,345.44177 858.567673,345.44177 L718.445986,345.44177 C715.265768,345.44177 712.687692,348.016648 712.687692,351.192922 C712.687692,354.369195 715.265768,356.944074 718.445986,356.944074 L718.445986,356.944074 Z" id="Shape" fill="#F4F4F4" sketch:type="MSShapeGroup"></path>
                <circle id="Oval-83" fill="#D8D8D8" sketch:type="MSShapeGroup" cx="740.078778" cy="384.204756" r="8.20475576"></circle>
                <circle id="Oval-83" fill="#D8D8D8" sketch:type="MSShapeGroup" cx="358.078778" cy="150.598482" r="8.20475576"></circle>
                <circle id="Oval-83" fill="#D8D8D8" sketch:type="MSShapeGroup" cx="1233.34282" cy="300.412799" r="8.98999398"></circle>
                <circle id="Oval-83" fill="#D8D8D8" sketch:type="MSShapeGroup" cx="595.738995" cy="246.728274" r="16.2610054"></circle>
                <circle id="Oval-83" fill="#D8D8D8" sketch:type="MSShapeGroup" cx="1130.1945" cy="387.58198" r="16.2610054"></circle>
                <circle id="Oval-83" fill="#D8D8D8" sketch:type="MSShapeGroup" cx="880.586972" cy="300.412799" r="16.2610054"></circle>
                <rect id="Rectangle-30" fill="#F4F4F4" sketch:type="MSShapeGroup" transform="translate(1164.108023, 350.199981) rotate(-180.000000) translate(-1164.108023, -350.199981) " x="1094.87322" y="344.483244" width="138.469601" height="11.4334741" rx="15.36"></rect>
                <rect id="Rectangle-30" fill="#D8D8D8" sketch:type="MSShapeGroup" transform="translate(1272.720315, 350.199981) rotate(-180.000000) translate(-1272.720315, -350.199981) " x="1203.48552" y="344.483244" width="138.469601" height="11.4334741" rx="15.36"></rect>
                <g id="Group" transform="translate(923.971637, 346.274481) rotate(-17.000000) translate(-923.971637, -346.274481) translate(903.471637, 317.274481)" sketch:type="MSShapeGroup">
                    <ellipse id="Oval-83" fill="#D8D8D8" cx="10.2118277" cy="47.9571883" rx="9.92022454" ry="9.92022454"></ellipse>
                    <path d="M22.0817413,47.4929277 L22.0817413,5.39863668 C22.0817413,2.63721293 19.843165,0.398636676 17.0817413,0.398636676 C14.3203175,0.398636676 12.0817413,2.63721293 12.0817413,5.39863668 L12.0817413,47.4929277 C12.0817413,50.2543515 14.3203175,52.4929277 17.0817413,52.4929277 C19.843165,52.4929277 22.0817413,50.2543515 22.0817413,47.4929277 L22.0817413,47.4929277 Z" id="Shape" fill="#D8D8D8"></path>
                    <path d="M13.8453481,9.54671925 L32.5150952,22.1114976 C34.8060179,23.6532933 37.9130502,23.0460059 39.4548459,20.7550831 C40.9966416,18.4641604 40.3893542,15.3571282 38.0984314,13.8153324 L19.4286843,1.2505541 C17.1377616,-0.291241635 14.0307293,0.3160458 12.4889336,2.60696855 C10.9471379,4.8978913 11.5544253,8.00492352 13.8453481,9.54671925 L13.8453481,9.54671925 Z" id="Shape" fill="#E6E6E6"></path>
                </g>
                <g id="Group" transform="translate(1201.000000, 192.500000) rotate(18.000000) translate(-1201.000000, -192.500000) translate(1171.000000, 156.000000)" sketch:type="MSShapeGroup">
                    <ellipse id="Oval-83" fill="#D8D8D8" cx="10.7957797" cy="62.3845639" rx="10.4875015" ry="10.5163134"></ellipse>
                    <ellipse id="Oval-83" fill="#D8D8D8" cx="47.2495327" cy="51.8682506" rx="10.4875015" ry="10.5163134"></ellipse>
                    <path d="M22.0585416,61.8924067 L22.0585416,17.2687439 C22.0585416,15.0535358 20.2676806,13.2577549 18.0585416,13.2577549 C15.8494026,13.2577549 14.0585416,15.0535358 14.0585416,17.2687439 L14.0585416,61.8924067 C14.0585416,64.1076147 15.8494026,65.9033957 18.0585416,65.9033957 C20.2676806,65.9033957 22.0585416,64.1076147 22.0585416,61.8924067 L22.0585416,61.8924067 Z" id="Shape" fill="#D8D8D8"></path>
                    <path d="M58.8205728,51.5448907 L58.8205728,6.92122789 C58.8205728,4.70601983 57.0297118,2.91023888 54.8205728,2.91023888 C52.6114338,2.91023888 50.8205728,4.70601983 50.8205728,6.92122789 L50.8205728,51.5448907 C50.8205728,53.7600987 52.6114338,55.5558797 54.8205728,55.5558797 C57.0297118,55.5558797 58.8205728,53.7600987 58.8205728,51.5448907 L58.8205728,51.5448907 Z" id="Shape" fill="#D8D8D8"></path>
                    <path d="M19.0400304,21.0606245 L56.4470095,8.12622953 C58.5354698,7.40409234 59.6446974,5.12100169 58.9245387,3.02680384 C58.20438,0.932605987 55.9275444,-0.179668944 53.8390841,0.542468246 L16.4321049,13.4768633 C14.3436446,14.1990004 13.234417,16.4820911 13.9545758,18.5762889 C14.6747345,20.6704868 16.9515701,21.7827617 19.0400304,21.0606245 L19.0400304,21.0606245 Z" id="Shape" fill="#E6E6E6"></path>
                    <path d="M19.6849783,33.9950195 L57.0919574,21.0606245 C59.1804178,20.3384873 60.2896454,18.0553967 59.5694866,15.9611988 C58.8493279,13.867001 56.5724923,12.7547261 54.484032,13.4768633 L17.0770529,26.4112583 C14.9885925,27.1333955 13.8793649,29.4164861 14.5995237,31.510684 C15.3196824,33.6048818 17.596518,34.7171567 19.6849783,33.9950195 L19.6849783,33.9950195 Z" id="Shape" fill="#E6E6E6"></path>
                </g>
                <path d="M80.3879872,71.9234888 C81.0549479,70.2082521 81.4208749,68.3426382 81.4208749,66.3915478 C81.4208749,57.9591775 74.5858685,51.1233907 66.1544608,51.1233907 C64.1631925,51.1233907 62.2609675,51.5046741 60.5167947,52.1982242 C57.6650981,42.8649902 48.9848087,36.0765112 38.719166,36.0765112 C26.1331517,36.0765112 15.9301712,46.2806567 15.9301712,58.8681081 C15.9301712,59.0685826 15.9327592,59.2684527 15.9379037,59.4676866 C14.9435708,59.2205488 13.90342,59.0893857 12.8326379,59.0893857 C5.74536768,59.0893857 0,64.8354094 0,71.9234888 L80.3879872,71.9234888 Z" id="Oval-8" fill-opacity="0.05" fill="#000000" sketch:type="MSShapeGroup"></path>
                <path d="M269.591878,71.9234888 C270.501137,69.5851293 271,67.0417627 271,64.3818669 C271,53.4018261 262.499191,44.4074824 251.720633,43.6226077 C249.469403,25.3419149 233.88739,11.1882941 215,11.1882941 C194.565464,11.1882941 178,27.7556498 178,48.1925187 C178,50.3277269 178.180824,52.4206965 178.527991,54.4569465 C178.186065,54.4370257 177.841494,54.4269261 177.494565,54.4269261 C167.832584,54.4269261 160,62.260404 160,71.9234888 L269.591878,71.9234888 Z" id="Oval-8" fill-opacity="0.05" fill="#000000" sketch:type="MSShapeGroup"></path>
            </g>
        </g>
    </g>
</svg>