<?xml version="1.0" encoding="UTF-8" standalone="no"?>
<svg width="37px" height="37px" viewBox="0 0 37 37" version="1.1" xmlns="http://www.w3.org/2000/svg" xmlns:xlink="http://www.w3.org/1999/xlink" xmlns:sketch="http://www.bohemiancoding.com/sketch/ns">
    <!-- Generator: Sketch 3.3.2 (12043) - http://www.bohemiancoding.com/sketch -->
    <title>CD-icon@3x</title>
    <desc>Created with Sketch.</desc>
    <defs></defs>
    <g id="slice" stroke="none" stroke-width="1" fill="none" fill-rule="evenodd" sketch:type="MSPage">
        <g id="CD-icon" sketch:type="MSLayerGroup">
            <g id="Oval-156-+-Oval-156" transform="translate(0.000000, 4.561644)" fill="#FAC339" sketch:type="MSShapeGroup">
                <path d="M16,32.4383562 C24.836556,32.4383562 32,25.1767828 32,16.2191781 C32,7.26157337 24.836556,0 16,0 C7.163444,0 0,7.26157337 0,16.2191781 C0,25.1767828 7.163444,32.4383562 16,32.4383562 Z M16,21.0537408 C18.6339734,21.0537408 20.7692308,18.8892333 20.7692308,16.2191781 C20.7692308,13.5491228 18.6339734,11.3846154 16,11.3846154 C13.3660266,11.3846154 11.2307692,13.5491228 11.2307692,16.2191781 C11.2307692,18.8892333 13.3660266,21.0537408 16,21.0537408 Z" id="Oval-156"></path>
            </g>
            <path d="M15.75,27.3561644 C19.2048481,27.3561644 22,24.5227228 22,21.0342466 C22,17.5457704 19.2048481,14.7123288 15.75,14.7123288 C12.2951519,14.7123288 9.5,17.5457704 9.5,21.0342466 C9.5,24.5227228 12.2951519,27.3561644 15.75,27.3561644 L15.75,27.3561644 Z M15.75,25.3561644 C13.4058583,25.3561644 11.5,23.4241985 11.5,21.0342466 C11.5,18.6442947 13.4058583,16.7123288 15.75,16.7123288 C18.0941417,16.7123288 20,18.6442947 20,21.0342466 C20,23.4241985 18.0941417,25.3561644 15.75,25.3561644 L15.75,25.3561644 Z" id="Shape" fill="#E1AF31" sketch:type="MSShapeGroup"></path>
            <path d="M27.5,19.7671233 C27.5,13.8939893 22.8005241,9.13013699 17,9.13013699 C16.7238576,9.13013699 16.5,9.35399461 16.5,9.63013699 C16.5,9.90627936 16.7238576,10.130137 17,10.130137 C22.2451709,10.130137 26.5,14.4432514 26.5,19.7671233 C26.5,20.0432657 26.7238576,20.2671233 27,20.2671233 C27.2761424,20.2671233 27.5,20.0432657 27.5,19.7671233 L27.5,19.7671233 Z" id="Shape" fill="#FFFFFF" sketch:type="MSShapeGroup"></path>
            <path d="M24,19.260274 C24,15.6265411 21.0913851,12.6780822 17.5,12.6780822 C17.2238576,12.6780822 17,12.9019398 17,13.1780822 C17,13.4542246 17.2238576,13.6780822 17.5,13.6780822 C20.5360319,13.6780822 23,16.1758033 23,19.260274 C23,19.5364163 23.2238576,19.760274 23.5,19.760274 C23.7761424,19.760274 24,19.5364163 24,19.260274 L24,19.260274 Z" id="Shape" fill="#FFFFFF" sketch:type="MSShapeGroup"></path>
            <path d="M30.4047326,5.8903289 L32.980876,0.173588462 L35.9960326,3.22487769 L30.4047326,5.8903289 L30.4047326,5.8903289 Z" id="Path-719" fill="#FAC339" sketch:type="MSShapeGroup"></path>
            <path d="M32,9.22577956 L36.689168,7.06465033 L36.9390709,10.6438356 L32,9.22577956 L32,9.22577956 Z" id="Path-719" fill="#FAC339" sketch:type="MSShapeGroup"></path>
        </g>
    </g>
</svg>