<?xml version="1.0" encoding="UTF-8" standalone="no"?>
<svg width="1122px" height="276px" viewBox="0 0 1122 276" version="1.1" xmlns="http://www.w3.org/2000/svg" xmlns:xlink="http://www.w3.org/1999/xlink" xmlns:sketch="http://www.bohemiancoding.com/sketch/ns">
    <!-- Generator: Sketch 3.3.2 (12043) - http://www.bohemiancoding.com/sketch -->
    <title>finding img</title>
    <desc>Created with Sketch.</desc>
    <defs></defs>
    <g id="slice" stroke="none" stroke-width="1" fill="none" fill-rule="evenodd" sketch:type="MSPage">
        <g id="finding-img" sketch:type="MSLayerGroup">
            <g id="Group" transform="translate(0.000000, 26.000000)" sketch:type="MSShapeGroup">
                <path d="M458,169.5 C458,172.537566 455.650721,175 452.764144,175 L404.235856,175 C401.344173,175 399,172.531385 399,169.5 L399,169.5 C399,166.462434 401.349279,164 404.235856,164 L452.764144,164 C455.655827,164 458,166.468615 458,169.5 L458,169.5 L458,169.5 Z" id="Rectangle-30" fill="#E6E6E6"></path>
                <path d="M495.072266,117 C498.004054,117 500.380739,114.537566 500.380739,111.5 C500.380739,108.462434 498.004054,106 495.072266,106 L379.308473,106 C376.376684,106 374,108.462434 374,111.5 C374,114.537566 376.376684,117 379.308473,117 L495.072266,117 Z" id="Shape" fill="#F4F4F4"></path>
                <path d="M381.712246,116.919864 C384.632592,116.919864 387,114.475369 387,111.459932 C387,108.444495 384.632592,106 381.712246,106 L65.2877539,107.080136 C62.367408,107.080136 60,109.524631 60,112.540068 C60,115.555505 62.367408,118 65.2877539,118 L381.712246,116.919864 Z" id="Shape" fill="#E6E6E6"></path>
                <path d="M619.265625,116 L738.70116,116 C741.627628,116 744,113.537566 744,110.5 C744,107.462434 741.627628,105 738.70116,105 L619.265625,105 C616.339156,105 613.966785,107.462434 613.966785,110.5 C613.966785,113.537566 619.265625,116 619.265625,116 Z" id="Shape" fill="#F4F4F4"></path>
                <path d="M977.29884,116 L1115.70116,116 C1118.62763,116 1121,113.537566 1121,110.5 C1121,107.462434 1118.62763,105 1115.70116,105 L977.29884,105 C974.372372,105 972,107.462434 972,110.5 C972,113.537566 974.372372,116 977.29884,116 L977.29884,116 Z" id="Shape" fill="#E6E6E6"></path>
                <path d="M1005.71177,175 C1008.63238,175 1011,172.537566 1011,169.5 C1011,166.462434 1008.63238,164 1005.71177,164 L730.288228,164 C727.36762,164 725,166.462434 725,169.5 C725,172.537566 727.36762,175 730.288228,175 L1005.71177,175 Z" id="Shape" fill="#F3F3F3"></path>
                <path d="M641,169.5 C641,172.537566 638.659779,175 635.764727,175 L519.235273,175 C516.343912,175 514,172.531385 514,169.5 L514,169.5 C514,166.462434 516.340221,164 519.235273,164 L635.764727,164 C638.656088,164 641,166.468615 641,169.5 L641,169.5 L641,169.5 Z" id="Rectangle-30" fill="#F4F4F4"></path>
                <path d="M197,170.5 C197,173.537566 194.650721,176 191.764144,176 L143.235856,176 C140.344173,176 138,173.531385 138,170.5 L138,170.5 C138,167.462434 140.349279,165 143.235856,165 L191.764144,165 C194.655827,165 197,167.468615 197,170.5 L197,170.5 L197,170.5 Z" id="Rectangle-30" fill="#E6E6E6"></path>
                <path d="M169.278369,176 L297.721631,176 C300.636793,176 303,173.537566 303,170.5 C303,167.462434 300.636793,165 297.721631,165 L169.278369,165 C166.363207,165 164,167.462434 164,170.5 C164,173.537566 166.363207,176 169.278369,176 L169.278369,176 Z" id="Shape" fill="#F4F4F4"></path>
                <path d="M291.304874,78 L401.695126,78 C404.624927,78 407,75.5375661 407,72.5 C407,69.4624339 404.624927,67 401.695126,67 L291.304874,67 C288.375073,67 286,69.4624339 286,72.5 C286,75.5375661 288.375073,78 291.304874,78 L291.304874,78 Z" id="Shape" fill="#E6E6E6"></path>
                <path d="M5.40437644,118 L18.5956236,118 C21.5803782,118 24,115.537566 24,112.5 C24,109.462434 21.5803782,107 18.5956236,107 L5.40437644,107 C2.41962175,107 9.28009769e-14,109.462434 0,112.5 C-9.28009769e-14,115.537566 2.41962175,118 5.40437644,118 L5.40437644,118 Z" id="Shape" fill="#F4F4F4"></path>
                <path d="M150.33555,76 L199.66445,76 C202.611193,76 205,73.5375661 205,70.5 C205,67.4624339 202.611193,65 199.66445,65 L150.33555,65 C147.388807,65 145,67.4624339 145,70.5 C145,73.5375661 147.388807,76 150.33555,76 L150.33555,76 Z" id="Shape" fill="#F4F4F4"></path>
                <circle id="Oval-83" fill="#D8D8D8" cx="417.5" cy="10.5" r="10.5"></circle>
                <circle id="Oval-83" fill="#D8D8D8" cx="915" cy="132" r="14"></circle>
            </g>
            <g id="Group" transform="translate(471.000000, 0.000000)" sketch:type="MSShapeGroup">
                <path d="M142.267109,139 L210.712667,248.723793 C215.109167,255.771741 212.9788,265.049617 205.943582,269.453254 L199.135779,273.714543 C192.105386,278.11516 182.842452,275.969708 178.445557,268.921127 L110,159.197334 L142.267109,139 Z M121.371582,160.22998 L186.142915,264.170121 C187.898916,266.987528 191.593899,267.844226 194.395885,266.088853 L201.187509,261.834074 C203.991923,260.077181 204.842344,256.375351 203.085246,253.556183 L138.371094,149.299316 L121.371582,160.22998 Z" id="Shape" fill="#E3E3E3"></path>
                <path d="M148.689109,165.937643 L178.620908,213.86715 C179.94738,215.991217 182.744159,216.637524 184.867689,215.310717 C186.99122,213.98391 187.637363,211.186424 186.310891,209.062357 L156.379092,161.13285 C155.05262,159.008783 152.255841,158.362476 150.132311,159.689283 C148.00878,161.01609 147.362637,163.813576 148.689109,165.937643 L148.689109,165.937643 Z" id="Shape" fill="#C7C7C7"></path>
                <path d="M156.669756,232.914414 L172.557784,258.826342 C173.87035,260.967018 176.67432,261.641125 178.820626,260.332001 C180.966931,259.022877 181.642811,256.226262 180.330244,254.085586 L164.442216,228.173658 C163.12965,226.032982 160.32568,225.358875 158.179374,226.667999 C156.033069,227.977123 155.357189,230.773738 156.669756,232.914414 L156.669756,232.914414 Z" id="Shape" fill="#C7C7C7"></path>
                <path d="M85,170 C131.944204,170 170,131.944204 170,85 C170,38.0557963 131.944204,1.13686838e-13 85,1.13686838e-13 C38.0557963,1.13686838e-13 5.68434189e-14,38.0557963 5.68434189e-14,85 C5.68434189e-14,131.944204 38.0557963,170 85,170 L85,170 Z M85,159 C44.1309285,159 11,125.869071 11,85 C11,44.1309285 44.1309285,11 85,11 C125.869071,11 159,44.1309285 159,85 C159,125.869071 125.869071,159 85,159 L85,159 Z" id="Shape" fill="#EEEEEE"></path>
                <path d="M85.5127516,170 C109.28506,170 131.505196,160.218271 147.497347,143.284741 C149.586519,141.072591 149.484738,137.587649 147.270013,135.500906 C145.055288,133.414163 141.566291,133.515826 139.47712,135.727976 C125.546994,150.478099 106.217501,158.987312 85.5127516,158.987312 C82.468143,158.987312 80,161.452586 80,164.493656 C80,167.534726 82.468143,170 85.5127516,170 L85.5127516,170 Z M170,84.5213156 C170,51.9663496 151.498524,22.7330334 122.889775,8.56802114 C120.182827,7.22773354 116.904221,8.34034086 115.566805,11.0530991 C114.229388,13.7658574 115.339612,17.0515003 118.04656,18.3917879 C142.960184,30.7272379 159.0661,56.175442 159.0661,84.5213156 C159.0661,87.5471094 161.513737,90 164.53305,90 C167.552363,90 170,87.5471094 170,84.5213156 L170,84.5213156 Z M12.8180479,40.6039797 C11.2223175,43.1959031 12.0324139,46.5891161 14.627449,48.182933 C17.222484,49.77675 20.6197706,48.9676249 22.215501,46.3757016 C35.6369457,24.5754304 59.3877206,11.0187675 85.4840021,11.0187675 C88.5304036,11.0187675 91,8.55213236 91,5.50938374 C91,2.46663512 88.5304036,0 85.4840021,0 C55.5153167,0 28.2265984,15.5760793 12.8180479,40.6039797 Z M5.68434189e-14,85.524509 C5.68434189e-14,105.214109 6.55228094,123.894611 18.372436,138.933592 C20.2425201,141.312931 23.6470829,141.693434 25.97674,139.783468 C28.306397,137.873503 28.6789544,134.396334 26.8088703,132.016995 C16.5167415,118.922147 10.8183067,102.675954 10.8183067,85.524509 C10.8183067,82.4734069 8.39654628,80 5.40915337,80 C2.42176045,80 5.68434189e-14,82.4734069 5.68434189e-14,85.524509 L5.68434189e-14,85.524509 Z" id="Shape" fill="#D9D9D9"></path>
                <path d="M34.395891,126.474414 C46.7493228,141.8637 65.3798583,151 85.5,151 C103.775204,151 120.86002,143.470185 133.153955,130.437419 C144.540631,118.366435 151,102.432735 151,85.5 C151,60.3164044 136.656636,37.7016675 114.478683,26.7442458 C105.541811,22.3288216 95.6813705,20 85.5,20 C62.4741824,20 41.506015,31.9827517 29.6676531,51.234728 C23.379965,61.4599959 20,73.2381186 20,85.5 C20,100.604052 25.1346466,114.93722 34.395891,126.474414 L34.395891,126.474414 Z M42.9740151,119.588502 C35.2664601,109.986817 31,98.0771575 31,85.5 C31,75.2871779 33.8083124,65.5010857 39.037851,56.9966192 C48.8948703,40.9667747 66.3353552,31 85.5,31 C93.9819059,31 102.176206,32.9353156 109.606188,36.6062333 C128.066678,45.7269745 140,64.5418728 140,85.5 C140,99.5982218 134.631889,112.840052 125.152279,122.889361 C114.9156,133.741235 100.714741,140 85.5,140 C68.751056,140 53.2613441,132.403941 42.9740151,119.588502 L42.9740151,119.588502 Z" id="Shape" fill="#E4E4E4"></path>
            </g>
        </g>
    </g>
</svg>