<?xml version="1.0" encoding="UTF-8" standalone="no"?>
<svg width="24px" height="24px" viewBox="0 0 24 24" version="1.1" xmlns="http://www.w3.org/2000/svg" xmlns:xlink="http://www.w3.org/1999/xlink" xmlns:sketch="http://www.bohemiancoding.com/sketch/ns">
    <!-- Generator: Sketch 3.3.2 (12043) - http://www.bohemiancoding.com/sketch -->
    <title>icon-facebook</title>
    <desc>Created with Sketch.</desc>
    <defs></defs>
    <g id="Page-1" stroke="none" stroke-width="1" fill="none" fill-rule="evenodd" sketch:type="MSPage">
        <g id="icon-share-facebook" sketch:type="MSLayerGroup" transform="translate(2.000000, 2.000000)" fill="#939393">
            <g id="Page-1" sketch:type="MSShapeGroup">
                <path d="M10,0 C4.4771875,0 0,4.4771875 0,10 C0,15.5228125 4.4771875,20 10,20 L10,12.5 L7.5,12.5 L7.5,10 L10,10 L10,8.125 C10,6.3990625 11.3990625,5 13.125,5 L16.25,5 L16.25,7.5 L13.125,7.5 C12.7796875,7.5 12.5,7.7796875 12.5,8.125 L12.5,10 L15.9375,10 L15.3125,12.5 L12.5,12.5 L12.5,19.685 C16.813125,18.575 20,14.6596875 20,10 C20,4.4771875 15.5228125,0 10,0 L10,0 L10,0 Z" id="Shape"></path>
            </g>
        </g>
    </g>
</svg>