<?xml version="1.0" encoding="UTF-8" standalone="no"?>
<svg width="24px" height="24px" viewBox="0 0 24 24" version="1.1" xmlns="http://www.w3.org/2000/svg" xmlns:xlink="http://www.w3.org/1999/xlink" xmlns:sketch="http://www.bohemiancoding.com/sketch/ns">
    <!-- Generator: Sketch 3.3.2 (12043) - http://www.bohemiancoding.com/sketch -->
    <title>icon-note</title>
    <desc>Created with Sketch.</desc>
    <defs></defs>
    <g id="Page-1" stroke="none" stroke-width="1" fill="none" fill-rule="evenodd" sketch:type="MSPage">
        <path d="M11.9462891,6 L12.2802734,6 C13.288091,6 13.9531234,6.04101521 14.2753906,6.12304688 C14.7382836,6.24023496 15.1455061,6.46581864 15.4970703,6.79980469 C15.7607435,7.04589967 15.9687492,7.39306417 16.1210938,7.84130859 C16.2734383,8.28955302 16.3496094,8.81249701 16.3496094,9.41015625 L16.3496094,10.3154297 L15.4794922,10.3154297 L15.4794922,9.9375 C15.4794922,9.53906051 15.3959969,9.20068499 15.2290039,8.92236328 C15.0620109,8.64404158 14.8144548,8.43164136 14.4863281,8.28515625 C14.0585916,8.09765531 13.583987,8.00390625 13.0625,8.00390625 L12.8164062,8.00390625 L12.8164062,15.3427734 C12.8164062,16.0517614 12.7226572,16.6040019 12.5351562,16.9995117 C12.3476553,17.3950215 12.0253929,17.7114246 11.5683594,17.9487305 C11.1113258,18.1860363 10.6132839,18.3046875 10.0742188,18.3046875 C9.43554368,18.3046875 8.93017764,18.1245135 8.55810547,17.7641602 C8.1860333,17.4038068 8,16.930667 8,16.3447266 C8,15.7294891 8.22265402,15.2124044 8.66796875,14.793457 C9.11328348,14.3745096 9.69628546,14.1650391 10.4169922,14.1650391 C10.8740257,14.1650391 11.3837863,14.2998033 11.9462891,14.5693359 L11.9462891,6 Z" id="♪" fill="#FFFFFF" sketch:type="MSShapeGroup"></path>
    </g>
</svg>