<?xml version="1.0" encoding="UTF-8" standalone="no"?>
<svg width="1285px" height="424px" viewBox="0 0 1285 424" version="1.1" xmlns="http://www.w3.org/2000/svg" xmlns:xlink="http://www.w3.org/1999/xlink" xmlns:sketch="http://www.bohemiancoding.com/sketch/ns">
    <!-- Generator: Sketch 3.3.2 (12043) - http://www.bohemiancoding.com/sketch -->
    <title>left@3x</title>
    <desc>Created with Sketch.</desc>
    <defs></defs>
    <g id="Page-1" stroke="none" stroke-width="1" fill="none" fill-rule="evenodd" sketch:type="MSPage">
        <g id="illustration-melody" sketch:type="MSArtboardGroup" transform="translate(1.000000, -156.000000)">
            <g id="LEFT" sketch:type="MSLayerGroup" transform="translate(0.000000, 176.000000)">
                <path d="M0.60546716,284.203122 L180.789069,126.449218 L361.922906,283.69778 L0.60546716,284.203122 Z" id="Rectangle-72" fill="#F2F2F2" sketch:type="MSShapeGroup"></path>
                <path d="M174.63382,280.983778 L299.780003,177.481715 L403.711081,281.412799 L174.63382,280.983778 Z" id="Rectangle-72" fill="#F2F2F2" sketch:type="MSShapeGroup"></path>
                <path d="M381.299393,278.407594 L437.402342,216.41797 L487.223004,278.494027 L381.299393,278.407594 Z" id="Rectangle-72" fill="#F2F2F2" sketch:type="MSShapeGroup"></path>
                <rect id="Rectangle-30" fill="#E6E6E6" sketch:type="MSShapeGroup" transform="translate(512.335487, 331.199981) rotate(-180.000000) translate(-512.335487, -331.199981) " x="480.190758" y="325.483244" width="64.2894576" height="11.4334741" rx="15.36"></rect>
                <path d="M457.464057,288.880058 L607.573192,288.880058 C610.75341,288.880058 613.331486,286.30518 613.331486,283.128906 C613.331486,279.952633 610.75341,277.377754 607.573192,277.377754 L457.464057,277.377754 C454.283839,277.377754 451.705763,279.952633 451.705763,283.128906 C451.705763,286.30518 454.283839,288.880058 457.464057,288.880058 L457.464057,288.880058 Z" id="Shape" fill="#F4F4F4" sketch:type="MSShapeGroup"></path>
                <path d="M585.106237,288.880058 L636.436201,288.880058 C639.616419,288.880058 642.194495,286.30518 642.194495,283.128906 C642.194495,279.952633 639.616419,277.377754 636.436201,277.377754 L585.106237,277.377754 C581.926019,277.377754 579.347943,279.952633 579.347943,283.128906 C579.347943,286.30518 581.926019,288.880058 585.106237,288.880058 L585.106237,288.880058 Z" id="Shape" fill="#E7E7E7" sketch:type="MSShapeGroup"></path>
                <path d="M459.798347,288.880058 C462.978565,288.880058 465.556641,286.30518 465.556641,283.128906 C465.556641,279.952633 462.978565,277.377754 459.798347,277.377754 L115.216271,278.515502 C112.036053,278.515502 109.457977,281.090381 109.457977,284.266654 C109.457977,287.442928 112.036053,290.017806 115.216271,290.017806 L459.798347,288.880058 Z" id="Shape" fill="#E6E6E6" sketch:type="MSShapeGroup"></path>
                <path d="M652.939573,312.971774 L702.5205,305.354212 L696.117922,356.282976 L652.939573,312.971774 Z" id="Rectangle-72" fill="#E6E6E6" sketch:type="MSShapeGroup" transform="translate(677.730037, 330.818594) rotate(-45.000000) translate(-677.730037, -330.818594) "></path>
                <path d="M697.691946,288.100756 L848.094899,288.100756 C851.275117,288.100756 853.853193,285.525877 853.853193,282.349604 C853.853193,279.17333 851.275117,276.598452 848.094899,276.598452 L697.691946,276.598452 C694.511728,276.598452 691.933652,279.17333 691.933652,282.349604 C691.933652,285.525877 694.511728,288.100756 697.691946,288.100756 L697.691946,288.100756 Z" id="Shape" fill="#F4F4F4" sketch:type="MSShapeGroup"></path>
                <path d="M1107.69195,288.100756 L1258.0949,288.100756 C1261.27512,288.100756 1263.85319,285.525877 1263.85319,282.349604 C1263.85319,279.17333 1261.27512,276.598452 1258.0949,276.598452 L1107.69195,276.598452 C1104.51173,276.598452 1101.93365,279.17333 1101.93365,282.349604 C1101.93365,285.525877 1104.51173,288.100756 1107.69195,288.100756 L1107.69195,288.100756 Z" id="Shape" fill="#E6E6E6" sketch:type="MSShapeGroup"></path>
                <path d="M1140.59765,336.985548 C1143.77787,336.985548 1146.35595,334.41067 1146.35595,331.234396 C1146.35595,328.058123 1143.77787,325.483244 1140.59765,325.483244 L840.691946,325.483244 C837.511728,325.483244 834.933652,328.058123 834.933652,331.234396 C834.933652,334.41067 837.511728,336.985548 840.691946,336.985548 L1140.59765,336.985548 Z" id="Shape" fill="#F3F3F3" sketch:type="MSShapeGroup"></path>
                <rect id="Rectangle-30" fill="#F4F4F4" sketch:type="MSShapeGroup" transform="translate(676.108023, 331.199981) rotate(-180.000000) translate(-676.108023, -331.199981) " x="606.873223" y="325.483244" width="138.469601" height="11.4334741" rx="15.36"></rect>
                <rect id="Rectangle-30" fill="#E6E6E6" sketch:type="MSShapeGroup" transform="translate(228.138805, 332.158507) rotate(-180.000000) translate(-228.138805, -332.158507) " x="195.994076" y="326.44177" width="64.2894576" height="11.4334741" rx="15.36"></rect>
                <path d="M230.445986,337.944074 L370.567673,337.944074 C373.747891,337.944074 376.325967,335.369195 376.325967,332.192922 C376.325967,329.016648 373.747891,326.44177 370.567673,326.44177 L230.445986,326.44177 C227.265768,326.44177 224.687692,329.016648 224.687692,332.192922 C224.687692,335.369195 227.265768,337.944074 230.445986,337.944074 L230.445986,337.944074 Z" id="Shape" fill="#F4F4F4" sketch:type="MSShapeGroup"></path>
                <rect id="Rectangle-30" fill="#F4F4F4" sketch:type="MSShapeGroup" transform="translate(485.124611, 379.126249) rotate(-180.000000) translate(-485.124611, -379.126249) " x="415.88981" y="373.409512" width="138.469601" height="11.4334741" rx="15.36"></rect>
                <rect id="Rectangle-30" fill="#F4F4F4" sketch:type="MSShapeGroup" transform="translate(247.828159, 379.126249) rotate(-180.000000) translate(-247.828159, -379.126249) " x="133.733412" y="373.409512" width="228.189493" height="11.4334741" rx="15.36"></rect>
                <rect id="Rectangle-30" fill="#F4F4F4" sketch:type="MSShapeGroup" transform="translate(554.562975, 379.126249) rotate(-180.000000) translate(-554.562975, -379.126249) " x="522.418246" y="373.409512" width="64.2894576" height="11.4334741" rx="15.36"></rect>
                <path d="M577.727491,245.925641 L582.400474,245.925641 C585.580692,245.925641 588.158768,243.350762 588.158768,240.174488 C588.158768,236.998215 585.580692,234.423336 582.400474,234.423336 L577.727491,234.423336 C574.547273,234.423336 571.969197,236.998215 571.969197,240.174488 C571.969197,243.350762 574.547273,245.925641 577.727491,245.925641 L577.727491,245.925641 Z" id="Shape" fill="#F4F4F4" sketch:type="MSShapeGroup"></path>
                <path d="M361.692432,245.925641 L481.518004,245.925641 C484.698222,245.925641 487.276298,243.350762 487.276298,240.174488 C487.276298,236.998215 484.698222,234.423336 481.518004,234.423336 L361.692432,234.423336 C358.512214,234.423336 355.934139,236.998215 355.934139,240.174488 C355.934139,243.350762 358.512214,245.925641 361.692432,245.925641 L361.692432,245.925641 Z" id="Shape" fill="#E6E6E6" sketch:type="MSShapeGroup"></path>
                <path d="M609.640039,245.925641 L667.35149,245.925641 C670.531708,245.925641 673.109784,243.350762 673.109784,240.174488 C673.109784,236.998215 670.531708,234.423336 667.35149,234.423336 L609.640039,234.423336 C606.459821,234.423336 603.881746,236.998215 603.881746,240.174488 C603.881746,243.350762 606.459821,245.925641 609.640039,245.925641 L609.640039,245.925641 Z" id="Shape" fill="#F4F4F4" sketch:type="MSShapeGroup"></path>
                <path d="M50.212507,290.017806 L64.2676117,290.017806 C67.4478296,290.017806 70.0259056,287.442928 70.0259056,284.266654 C70.0259056,281.090381 67.4478296,278.515502 64.2676117,278.515502 L50.212507,278.515502 C47.0322891,278.515502 44.4542131,281.090381 44.4542131,284.266654 C44.4542131,287.442928 47.0322891,290.017806 50.212507,290.017806 L50.212507,290.017806 Z" id="Shape" fill="#F4F4F4" sketch:type="MSShapeGroup"></path>
                <path d="M208.066412,244.00859 L261.303719,244.00859 C264.483937,244.00859 267.062013,241.433711 267.062013,238.257438 C267.062013,235.081164 264.483937,232.506286 261.303719,232.506286 L208.066412,232.506286 C204.886194,232.506286 202.308118,235.081164 202.308118,238.257438 C202.308118,241.433711 204.886194,244.00859 208.066412,244.00859 L208.066412,244.00859 Z" id="Shape" fill="#F4F4F4" sketch:type="MSShapeGroup"></path>
                <path d="M383.615668,109.560561 C382.570013,106.665763 382,103.543433 382,100.287955 C382,85.2172334 394.215839,73 409.284839,73 C421.575702,73 431.968451,81.1277196 435.382734,92.3022268 C437.471,91.4718522 439.748499,91.0153487 442.132607,91.0153487 C452.227374,91.0153487 460.4108,99.1997089 460.4108,109.295629 C460.4108,109.384088 460.410172,109.4724 460.40892,109.560561 L383.615668,109.560561 Z" id="Oval-8" fill="#F2F2F2" sketch:type="MSShapeGroup"></path>
                <path d="M627.920576,51 C628.861092,48.5812554 629.377104,45.9504562 629.377104,43.199122 C629.377104,31.3081976 619.738706,21.6686987 607.849139,21.6686987 C605.041148,21.6686987 602.358721,22.2063663 599.899173,23.1843774 C595.877847,10.0230983 583.637319,0.450310559 569.161202,0.450310559 C551.413007,0.450310559 537.025253,14.8397074 537.025253,32.5899279 C537.025253,32.8726276 537.028903,33.1544747 537.036157,33.4354248 C535.633997,33.0869229 534.167226,32.901963 532.65726,32.901963 C522.663132,32.901963 514.56129,41.0047302 514.56129,51 L627.920576,51 Z" id="Oval-8" fill="#F4F4F4" sketch:type="MSShapeGroup"></path>
                <path d="M902.722265,109.560561 C903.861759,106.630099 904.486941,103.442721 904.486941,100.109306 C904.486941,85.702704 892.809415,74.0238452 878.404457,74.0238452 C875.0024,74.0238452 871.752471,74.6752632 868.772573,75.8601852 C863.900484,59.9144681 849.070315,48.316434 831.531589,48.316434 C810.028536,48.316434 792.596867,65.7500929 792.596867,87.2556009 C792.596867,87.5981093 792.601289,87.9395848 792.610078,88.2799736 C790.911273,87.8577416 789.134188,87.6336511 787.304769,87.6336511 C775.196254,87.6336511 765.380363,97.4506628 765.380363,109.560561 L902.722265,109.560561 Z" id="Oval-8" fill-opacity="0.1" fill="#000000" sketch:type="MSShapeGroup"></path>
                <path d="M989.611912,51 C990.278873,49.2847633 990.6448,47.4191494 990.6448,45.468059 C990.6448,37.0356887 983.809793,30.1999019 975.378386,30.1999019 C973.387117,30.1999019 971.484892,30.5811853 969.740719,31.2747354 C966.889023,21.9415014 958.208733,15.1530224 947.943091,15.1530224 C935.357076,15.1530224 925.154096,25.3571679 925.154096,37.9446193 C925.154096,38.1450939 925.156684,38.3449639 925.161828,38.5441978 C924.167496,38.29706 923.127345,38.1658969 922.056563,38.1658969 C914.969292,38.1658969 909.223925,43.9119206 909.223925,51 L989.611912,51 Z" id="Oval-8" fill-opacity="0.05" fill="#000000" sketch:type="MSShapeGroup"></path>
                <circle id="Oval-83" fill="#D8D8D8" sketch:type="MSShapeGroup" cx="333.934139" cy="281.412799" r="22"></circle>
                <circle id="Oval-83" fill="#D8D8D8" sketch:type="MSShapeGroup" cx="558.063982" cy="170.37828" r="11.6217203"></circle>
                <circle id="Oval-83" fill="#D8D8D8" sketch:type="MSShapeGroup" cx="584.831851" cy="379.126249" r="15.146148"></circle>
                <circle id="Oval-83" fill="#D8D8D8" sketch:type="MSShapeGroup" cx="1027.83185" cy="325.483244" r="15.146148"></circle>
                <circle id="Oval-83" fill="#D8D8D8" sketch:type="MSShapeGroup" cx="245.989994" cy="358.263364" r="8.98999398"></circle>
                <g id="Group" transform="translate(393.000000, 308.781907)" sketch:type="MSShapeGroup">
                    <ellipse id="Oval-83" fill="#D8D8D8" cx="13.4947246" cy="77.7670591" rx="13.1093769" ry="13.1093769"></ellipse>
                    <ellipse id="Oval-83" fill="#D8D8D8" cx="59.0619159" cy="64.6576822" rx="13.1093769" ry="13.1093769"></ellipse>
                    <path d="M27.573177,77.1535481 L27.573177,21.5267903 C27.573177,18.7653666 25.3346008,16.5267903 22.573177,16.5267903 C19.8117533,16.5267903 17.573177,18.7653666 17.573177,21.5267903 L17.573177,77.1535481 C17.573177,79.9149718 19.8117533,82.1535481 22.573177,82.1535481 C25.3346008,82.1535481 27.573177,79.9149718 27.573177,77.1535481 L27.573177,77.1535481 Z" id="Shape" fill="#D8D8D8"></path>
                    <path d="M73.525716,64.2545897 L73.525716,8.62783203 C73.525716,5.86640828 71.2871398,3.62783203 68.525716,3.62783203 C65.7642923,3.62783203 63.525716,5.86640828 63.525716,8.62783203 L63.525716,64.2545897 C63.525716,67.0160135 65.7642923,69.2545897 68.525716,69.2545897 C71.2871398,69.2545897 73.525716,67.0160135 73.525716,64.2545897 L73.525716,64.2545897 Z" id="Shape" fill="#D8D8D8"></path>
                    <path d="M23.800038,26.2536552 L70.5587619,10.1299574 C73.1693373,9.22975894 74.5558718,6.38371443 73.6556734,3.77313903 C72.755475,1.16256363 69.9094305,-0.223970876 67.2988551,0.676227539 L20.5401312,16.7999254 C17.9295558,17.7001238 16.5430213,20.5461684 17.4432197,23.1567438 C18.3434181,25.7673192 21.1894626,27.1538537 23.800038,26.2536552 L23.800038,26.2536552 Z" id="Shape" fill="#E6E6E6"></path>
                    <path d="M24.6062229,42.3773531 L71.3649468,26.2536552 C73.9755222,25.3534568 75.3620567,22.5074123 74.4618583,19.8968369 C73.5616599,17.2862615 70.7156154,15.899727 68.10504,16.7999254 L21.3463161,32.9236233 C18.7357407,33.8238217 17.3492062,36.6698662 18.2494046,39.2804416 C19.149603,41.891017 21.9956475,43.2775516 24.6062229,42.3773531 L24.6062229,42.3773531 Z" id="Shape" fill="#E6E6E6"></path>
                </g>
            </g>
        </g>
    </g>
</svg>