<?xml version="1.0" encoding="UTF-8" standalone="no"?>
<svg width="221px" height="80px" viewBox="0 0 221 80" version="1.1" xmlns="http://www.w3.org/2000/svg" xmlns:xlink="http://www.w3.org/1999/xlink" xmlns:sketch="http://www.bohemiancoding.com/sketch/ns">
    <!-- Generator: Sketch 3.3.2 (12043) - http://www.bohemiancoding.com/sketch -->
    <title>logo@3x</title>
    <desc>Created with Sketch.</desc>
    <defs></defs>
    <g id="slice" stroke="none" stroke-width="1" fill="none" fill-rule="evenodd" sketch:type="MSPage">
        <g id="facebook-app" sketch:type="MSLayerGroup" transform="translate(13.000000, 11.000000)">
            <path d="M30.580773,17.9272727 L73.8156591,17.9272727 C74.980438,17.9272727 75.9246779,16.9830006 75.9246779,15.8181818 C75.9246779,14.6533631 74.980438,13.7090909 73.8156591,13.7090909 L30.580773,13.7090909 C29.4159941,13.7090909 28.4717542,14.6533631 28.4717542,15.8181818 C28.4717542,16.9830006 29.4159941,17.9272727 30.580773,17.9272727 L30.580773,17.9272727 Z" id="Shape" fill="#55B36C" sketch:type="MSShapeGroup"></path>
            <path d="M14.7631318,4.21818182 L41.1258672,4.21818182 C42.2906461,4.21818182 43.234886,3.27390965 43.234886,2.10909091 C43.234886,0.944272164 42.2906461,0 41.1258672,0 L14.7631318,0 C13.5983529,0 12.654113,0.944272164 12.654113,2.10909091 C12.654113,3.27390965 13.5983529,4.21818182 14.7631318,4.21818182 L14.7631318,4.21818182 Z" id="Shape" fill="#E7E879" sketch:type="MSShapeGroup"></path>
            <path d="M22.1446977,30.5818182 L57.9980178,30.5818182 C59.1627968,30.5818182 60.1070367,29.637546 60.1070367,28.4727273 C60.1070367,27.3079085 59.1627968,26.3636364 57.9980178,26.3636364 L22.1446977,26.3636364 C20.9799188,26.3636364 20.0356789,27.3079085 20.0356789,28.4727273 C20.0356789,29.637546 20.9799188,30.5818182 22.1446977,30.5818182 L22.1446977,30.5818182 Z" id="Shape" fill="#E7E879" sketch:type="MSShapeGroup"></path>
            <path d="M60.1070367,44.2909091 L73.8561569,44.2909091 C75.0209359,44.2909091 75.9651758,43.3466369 75.9651758,42.1818182 C75.9651758,41.0169994 75.0209359,40.0727273 73.8561569,40.0727273 L60.1070367,40.0727273 C58.9422577,40.0727273 57.9980178,41.0169994 57.9980178,42.1818182 C57.9980178,43.3466369 58.9422577,44.2909091 60.1070367,44.2909091 L60.1070367,44.2909091 Z" id="Shape" fill="#E7E879" sketch:type="MSShapeGroup"></path>
            <path d="M43.234886,44.2909091 L55.888999,44.2909091 C57.0537779,44.2909091 57.9980178,43.3466369 57.9980178,42.1818182 C57.9980178,41.0169994 57.0537779,40.0727273 55.888999,40.0727273 L43.234886,40.0727273 C42.0701071,40.0727273 41.1258672,41.0169994 41.1258672,42.1818182 C41.1258672,43.3466369 42.0701071,44.2909091 43.234886,44.2909091 L43.234886,44.2909091 Z" id="Shape" fill="#81BF63" sketch:type="MSShapeGroup"></path>
            <path d="M2.10901883,44.2909091 L28.4717542,44.2909091 C29.6365331,44.2909091 30.580773,43.3466369 30.580773,42.1818182 C30.580773,41.0169994 29.6365331,40.0727273 28.4717542,40.0727273 L2.10901883,40.0727273 C0.944239893,40.0727273 0,41.0169994 0,42.1818182 C0,43.3466369 0.944239893,44.2909091 2.10901883,44.2909091 L2.10901883,44.2909091 Z" id="Shape" fill="#88C8AB" sketch:type="MSShapeGroup"></path>
            <path d="M13.7086224,58 L22.1446977,58 C23.3094767,58 24.2537166,57.0557278 24.2537166,55.8909091 C24.2537166,54.7260903 23.3094767,53.7818182 22.1446977,53.7818182 L13.7086224,53.7818182 C12.5438435,53.7818182 11.5996036,54.7260903 11.5996036,55.8909091 C11.5996036,57.0557278 12.5438435,58 13.7086224,58 L13.7086224,58 Z" id="Shape" fill="#E7E879" sketch:type="MSShapeGroup"></path>
            <path d="M49.5619425,58 L57.9980178,58 C59.1627968,58 60.1070367,57.0557278 60.1070367,55.8909091 C60.1070367,54.7260903 59.1627968,53.7818182 57.9980178,53.7818182 L49.5619425,53.7818182 C48.3971636,53.7818182 47.4529237,54.7260903 47.4529237,55.8909091 C47.4529237,57.0557278 48.3971636,58 49.5619425,58 L49.5619425,58 Z" id="Shape" fill="#E7E879" sketch:type="MSShapeGroup"></path>
            <path d="M26.9804527,57.3822616 C27.8040758,58.2059128 29.1394326,58.2059128 29.9630557,57.3822616 C30.7866788,56.5586103 30.7866788,55.2232078 29.9630557,54.3995566 C29.1394326,53.5759054 27.8040758,53.5759054 26.9804527,54.3995566 C26.1568296,55.2232078 26.1568296,56.5586103 26.9804527,57.3822616 L26.9804527,57.3822616 Z" id="Shape" fill="#88C8AB" sketch:type="MSShapeGroup"></path>
            <path d="M63.3610275,57.3822616 C64.1846506,58.2059128 65.5200075,58.2059128 66.3436306,57.3822616 C67.1672536,56.5586103 67.1672536,55.2232078 66.3436306,54.3995566 C65.5200075,53.5759054 64.1846506,53.5759054 63.3610275,54.3995566 C62.5374044,55.2232078 62.5374044,56.5586103 63.3610275,57.3822616 L63.3610275,57.3822616 Z" id="Shape" fill="#88C8AB" sketch:type="MSShapeGroup"></path>
            <path d="M2.10901883,17.9272727 L10.5450942,17.9272727 C11.7098731,17.9272727 12.654113,16.9830006 12.654113,15.8181818 C12.654113,14.6533631 11.7098731,13.7090909 10.5450942,13.7090909 L2.10901883,13.7090909 C0.944239893,13.7090909 0,14.6533631 0,15.8181818 C0,16.9830006 0.944239893,17.9272727 2.10901883,17.9272727 L2.10901883,17.9272727 Z" id="Shape" fill="#81BF63" sketch:type="MSShapeGroup"></path>
            <path d="M34.7988107,4.21818182 L48.5074331,4.21818182 C49.672212,4.21818182 50.6164519,3.27390965 50.6164519,2.10909091 C50.6164519,0.944272164 49.672212,0 48.5074331,0 L34.7988107,0 C33.6340318,0 32.6897919,0.944272164 32.6897919,2.10909091 C32.6897919,3.27390965 33.6340318,4.21818182 34.7988107,4.21818182 L34.7988107,4.21818182 Z" id="Shape" fill="#88C8AB" sketch:type="MSShapeGroup"></path>
        </g>
        <path d="M115.078,42.134 L115.078,46.418 L106.456,46.418 L106.456,42.134 L115.078,42.134 Z M105.106,48.488 L106.456,48.488 L106.456,47.696 L115.078,47.696 L115.078,48.452 L116.5,48.452 L116.5,40.874 L105.106,40.874 L105.106,48.488 Z M112.99,34.88 C113.764,35.528 114.574,36.284 115.33,37.058 C112.54,37.184 109.714,37.31 107.248,37.4 C108.256,35.942 109.336,34.106 110.164,32.504 L108.688,32 C107.986,33.656 106.762,35.87 105.7,37.472 C104.71,37.508 103.792,37.544 103,37.562 L103.09,38.894 C106.384,38.75 111.568,38.57 116.464,38.3 C116.986,38.93 117.436,39.524 117.742,40.028 L118.894,39.146 C117.976,37.67 115.852,35.564 114.034,34.124 L112.99,34.88 Z M135.414569,32.45 L132.318569,32.45 L132.318569,33.224 L135.414569,33.224 L135.414569,32.45 Z M136.008569,34.34 C136.512569,34.754 137.052569,35.294 137.376569,35.708 C137.160569,36.014 136.944569,36.302 136.728569,36.536 L135.846569,36.572 L135.936569,37.508 L137.682569,37.4 L137.682569,41 L138.618569,41 L138.618569,37.346 L139.590569,37.274 C139.644569,37.436 139.698569,37.598 139.734569,37.742 L140.508569,37.382 C140.328569,36.842 139.932569,36.032 139.518569,35.456 L138.816569,35.78 C138.960569,35.978 139.086569,36.212 139.212569,36.446 L137.736569,36.5 C138.402569,35.708 139.140569,34.718 139.734569,33.872 L138.888569,33.404 C138.636569,33.854 138.294569,34.394 137.934569,34.934 C137.772569,34.754 137.556569,34.556 137.340569,34.34 C137.718569,33.8 138.132569,33.098 138.510569,32.45 L137.646569,32.036 C137.430569,32.54 137.070569,33.26 136.728569,33.836 L136.458569,33.62 L136.008569,34.196 L136.008569,33.854 L131.688569,33.854 L131.688569,34.682 L136.008569,34.682 L136.008569,34.34 Z M136.458569,37.958 C136.296569,38.768 136.098569,39.596 135.702569,40.28 C135.954569,40.37 136.332569,40.55 136.512569,40.676 C136.872569,40.028 137.142569,39.056 137.340569,38.156 L136.458569,37.958 Z M132.228569,37.382 L135.540569,37.382 L135.540569,36.644 L132.228569,36.644 L132.228569,37.382 Z M135.540569,35.294 L132.228569,35.294 L132.228569,36.05 L135.540569,36.05 L135.540569,35.294 Z M133.056569,38.75 L134.640569,38.75 L134.640569,39.956 L133.056569,39.956 L133.056569,38.75 Z M132.174569,40.694 L135.558569,40.694 L135.558569,38.03 L132.174569,38.03 L132.174569,40.694 Z M127.638569,36.572 L127.746569,37.508 C128.250569,37.472 128.790569,37.418 129.366569,37.382 L129.366569,41 L130.302569,41 L130.302569,37.328 L131.112569,37.274 C131.166569,37.436 131.202569,37.58 131.220569,37.724 L131.940569,37.418 C131.814569,36.914 131.526569,36.122 131.184569,35.546 L130.536569,35.816 C130.644569,36.014 130.734569,36.212 130.824569,36.428 L129.618569,36.5 C130.212569,35.726 130.860569,34.772 131.400569,33.944 L130.554569,33.476 C130.338569,33.89 130.068569,34.376 129.762569,34.862 C129.600569,34.7 129.402569,34.52 129.204569,34.34 C129.564569,33.8 129.960569,33.08 130.320569,32.432 L129.456569,32.018 C129.240569,32.54 128.898569,33.242 128.574569,33.836 L128.286569,33.638 L127.800569,34.34 C128.286569,34.718 128.862569,35.24 129.222569,35.672 C129.006569,35.978 128.808569,36.284 128.592569,36.536 L127.638569,36.572 Z M131.832569,39.938 C131.778569,39.434 131.580569,38.624 131.382569,38.012 L130.644569,38.192 C130.824569,38.804 130.986569,39.614 131.058569,40.136 L131.832569,39.938 Z M127.656569,34.196 C127.152569,33.602 126.036569,32.792 125.136569,32.288 L124.362569,33.17 C125.262569,33.728 126.360569,34.574 126.846569,35.168 L127.656569,34.196 Z M127.350569,38.822 C126.792569,38.264 125.640569,37.508 124.722569,37.04 L123.966569,37.94 C124.884569,38.462 126.018569,39.272 126.540569,39.83 L127.350569,38.822 Z M125.514569,48.272 C126.216569,46.616 127.008569,44.42 127.602569,42.548 L126.558569,41.864 C125.892569,43.88 124.956569,46.184 124.308569,47.57 L125.514569,48.272 Z M128.196569,37.958 C128.034569,38.804 127.800569,39.668 127.404569,40.352 C127.620569,40.424 128.052569,40.604 128.232569,40.73 C128.592569,40.064 128.898569,39.074 129.078569,38.138 L128.196569,37.958 Z M130.266569,44.888 L130.518569,43.988 L138.834569,43.988 L138.834569,41.324 L128.826569,41.324 L128.826569,42.188 L137.592569,42.188 L137.592569,43.124 L129.510569,43.124 C129.258569,44.114 128.934569,45.32 128.610569,46.166 L129.834569,46.364 L129.996569,45.806 L138.150569,45.806 C137.934569,46.706 137.700569,47.174 137.394569,47.372 C137.214569,47.48 137.034569,47.498 136.638569,47.498 C136.206569,47.498 135.018569,47.48 133.866569,47.39 C134.064569,47.66 134.208569,48.11 134.244569,48.398 C135.378569,48.47 136.458569,48.488 136.998569,48.47 C137.592569,48.47 137.970569,48.398 138.348569,48.146 C138.834569,47.768 139.176569,46.976 139.536569,45.446 C139.590569,45.266 139.608569,44.888 139.608569,44.888 L130.266569,44.888 Z M139.032569,38.174 C139.338569,38.894 139.662569,39.884 139.752569,40.496 L140.580569,40.262 C140.436569,39.632 140.112569,38.678 139.806569,37.94 L139.032569,38.174 Z M161.781137,43.934 L161.781137,42.764 L153.987137,42.764 C154.113137,42.242 154.203137,41.702 154.257137,41.108 L161.601137,41.108 L161.601137,39.884 L154.329137,39.884 L154.329137,38.39 L160.107137,38.39 L160.107137,37.22 L154.329137,37.22 L154.329137,35.762 L160.899137,35.762 L160.899137,34.556 L156.939137,34.556 C157.443137,33.998 158.055137,33.242 158.559137,32.45 L157.191137,32.036 C156.813137,32.702 156.147137,33.71 155.643137,34.322 L156.309137,34.556 L150.945137,34.556 L151.521137,34.286 C151.251137,33.62 150.603137,32.684 149.955137,32.036 L148.803137,32.504 C149.343137,33.098 149.865137,33.908 150.153137,34.556 L146.517137,34.556 L146.517137,35.762 L152.997137,35.762 L152.997137,37.22 L147.399137,37.22 L147.399137,38.39 L152.997137,38.39 L152.997137,39.884 L145.797137,39.884 L145.797137,41.108 L152.871137,41.108 C152.799137,41.702 152.709137,42.26 152.583137,42.764 L145.671137,42.764 L145.671137,43.934 L152.133137,43.934 C151.269137,45.644 149.469137,46.724 145.437137,47.318 C145.689137,47.588 146.013137,48.146 146.121137,48.488 C150.765137,47.732 152.727137,46.274 153.627137,43.934 L153.717137,43.934 C154.995137,46.652 157.371137,48.02 161.223137,48.506 C161.385137,48.146 161.745137,47.57 162.051137,47.3 C158.577137,46.958 156.291137,45.932 155.103137,43.934 L161.781137,43.934 Z M173.729706,37.814 L176.519706,37.814 L176.519706,39.776 L173.729706,39.776 L173.729706,37.814 Z M173.729706,34.88 L176.519706,34.88 L176.519706,36.824 L173.729706,36.824 L173.729706,34.88 Z M177.725706,39.848 L177.725706,35.474 C178.463706,36.14 179.255706,36.986 179.759706,37.688 C179.309706,38.462 178.823706,39.2 178.391706,39.794 L177.725706,39.848 Z M183.089706,43.466 L183.089706,42.278 L175.781706,42.278 L175.781706,40.838 L177.725706,40.838 L177.725706,40.1 L177.851706,41.018 C179.039706,40.856 180.497706,40.658 182.009706,40.46 C182.135706,40.856 182.243706,41.234 182.315706,41.54 L183.305706,41.144 C183.107706,40.244 182.495706,38.768 181.829706,37.706 L180.911706,38.03 C181.163706,38.48 181.415706,39.002 181.631706,39.506 L179.633706,39.686 C180.569706,38.336 181.631706,36.554 182.441706,35.078 L181.379706,34.628 C181.109706,35.24 180.749706,35.942 180.353706,36.662 C180.119706,36.356 179.813706,36.032 179.507706,35.726 C180.029706,34.844 180.641706,33.602 181.145706,32.504 L180.065706,32.126 C179.777706,32.972 179.273706,34.124 178.787706,35.024 C178.607706,34.862 178.427706,34.718 178.265706,34.574 L177.725706,35.24 L177.725706,33.818 L175.421706,33.818 C175.601706,33.35 175.799706,32.792 175.997706,32.27 L174.683706,32.054 C174.593706,32.54 174.413706,33.242 174.233706,33.818 L172.577706,33.818 L172.577706,40.478 C172.343706,39.668 171.929706,38.66 171.479706,37.868 L170.597706,38.156 C170.813706,38.552 171.011706,39.002 171.191706,39.452 L169.373706,39.65 C170.309706,38.318 171.317706,36.554 172.091706,35.078 L171.065706,34.646 C170.795706,35.24 170.453706,35.924 170.075706,36.626 C169.823706,36.338 169.499706,36.014 169.157706,35.69 C169.661706,34.808 170.255706,33.62 170.741706,32.558 L169.661706,32.18 C169.373706,33.026 168.869706,34.16 168.401706,35.042 C168.239706,34.916 168.095706,34.79 167.933706,34.682 L167.357706,35.528 C168.113706,36.14 168.959706,36.968 169.499706,37.652 C169.049706,38.426 168.563706,39.182 168.113706,39.776 L167.195706,39.866 L167.339706,41.018 C168.563706,40.82 170.003706,40.622 171.515706,40.388 C171.641706,40.766 171.731706,41.108 171.785706,41.396 L172.721706,41.054 L172.667706,40.838 L174.449706,40.838 L174.449706,42.278 L167.231706,42.278 L167.231706,43.466 L173.171706,43.466 C171.605706,45.05 169.139706,46.454 166.871706,47.138 C167.177706,47.408 167.573706,47.912 167.771706,48.254 C170.147706,47.39 172.793706,45.752 174.449706,43.808 L174.449706,48.452 L175.781706,48.452 L175.781706,43.88 C177.473706,45.752 180.083706,47.318 182.549706,48.128 C182.729706,47.768 183.125706,47.264 183.431706,46.994 C181.073706,46.346 178.571706,45.032 177.023706,43.466 L183.089706,43.466 Z M191.978274,37.634 L194.084274,37.634 L194.084274,36.356 L191.978274,36.356 L191.978274,32.27 L190.718274,32.27 L190.718274,36.356 L188.414274,36.356 L188.414274,37.634 L190.718274,37.634 L190.718274,43.34 C189.782274,43.736 188.918274,44.078 188.252274,44.312 L188.774274,45.644 C190.358274,44.942 192.392274,44.06 194.300274,43.16 L194.030274,41.972 C193.328274,42.242 192.644274,42.548 191.978274,42.836 L191.978274,37.634 Z M198.008274,46.886 C196.838274,46.886 196.604274,46.652 196.604274,45.698 L196.604274,39.47 L199.016274,38.444 L199.016274,44.51 L200.294274,44.51 L200.294274,37.904 L202.796274,36.842 C202.796274,39.704 202.760274,41.702 202.670274,42.134 C202.580274,42.53 202.400274,42.602 202.130274,42.602 C201.932274,42.602 201.356274,42.602 200.924274,42.584 C201.086274,42.872 201.194274,43.376 201.248274,43.736 C201.752274,43.736 202.436274,43.736 202.940274,43.61 C203.444274,43.484 203.804274,43.16 203.894274,42.422 C204.038274,41.738 204.074274,39.056 204.074274,35.69 L204.146274,35.438 L203.210274,35.078 L202.958274,35.276 L202.670274,35.528 L200.294274,36.536 L200.294274,32.054 L199.016274,32.054 L199.016274,37.058 L196.604274,38.084 L196.604274,33.728 L195.326274,33.728 L195.326274,38.624 L193.382274,39.452 L193.904274,40.604 L195.326274,40.01 L195.326274,45.68 C195.326274,47.606 195.938274,48.092 197.972274,48.092 L202.382274,48.092 C204.272274,48.092 204.686274,47.3 204.902274,44.852 C204.524274,44.78 204.020274,44.564 203.696274,44.33 C203.570274,46.4 203.390274,46.886 202.346274,46.886 L198.008274,46.886 Z" id="台灣美樂地" fill="#6C6C6C" sketch:type="MSShapeGroup"></path>
    </g>
</svg>