<?xml version="1.0" encoding="UTF-8" standalone="no"?>
<svg width="757px" height="136px" viewBox="0 0 757 136" version="1.1" xmlns="http://www.w3.org/2000/svg" xmlns:xlink="http://www.w3.org/1999/xlink" xmlns:sketch="http://www.bohemiancoding.com/sketch/ns">
    <!-- Generator: Sketch 3.3.2 (12043) - http://www.bohemiancoding.com/sketch -->
    <title>background img-s@3x</title>
    <desc>Created with Sketch.</desc>
    <defs></defs>
    <g id="slice" stroke="none" stroke-width="1" fill="none" fill-rule="evenodd" sketch:type="MSPage">
        <g id="background-img-s" sketch:type="MSLayerGroup" transform="translate(11.000000, 6.000000)">
            <path d="M436,0 L471,76 L398,76 L436,0 Z" id="Rectangle-72" fill="#E7E879" sketch:type="MSShapeGroup"></path>
            <path d="M459,76 L477,41 L493,76 L459,76 L459,76 Z" id="Rectangle-72" fill="#E7E879" sketch:type="MSShapeGroup"></path>
            <path d="M551,113 L573,67 L596,113 L551,113 L551,113 Z" id="Rectangle-72" fill="#88C8AB" sketch:type="MSShapeGroup"></path>
            <g id="Group" transform="translate(141.000000, 112.000000)" sketch:type="MSShapeGroup">
                <path d="M310.751183,10 L262.248817,10 C259.349976,10 257,7.75580481 257,5 C257,2.23857625 259.349279,0 262.248817,0 L310.751183,2.38273412e-14 C313.650024,2.38273412e-14 316,2.24419519 316,5 C316,7.76142375 313.650721,10 310.751183,10 Z" id="Rectangle-30" fill="#E7E879"></path>
                <path d="M493.786118,10 L378.213882,10 C375.334335,10 373,7.75580481 373,5 C373,2.23857625 375.335485,0 378.213882,0 L493.786118,0 C496.665665,0 499,2.24419519 499,5 C499,7.76142375 496.664515,10 493.786118,10 Z" id="Rectangle-30" fill="#50B584"></path>
                <path d="M53.7511828,10 L5.2488172,10 C2.3499755,10 0,7.75580481 0,5 C0,2.23857625 2.3492786,0 5.2488172,0 L53.7511828,2.38273412e-14 C56.6500245,2.38273412e-14 59,2.24419519 59,5 C59,7.76142375 56.6507214,10 53.7511828,10 Z" id="Rectangle-30" fill="#E7E879"></path>
                <path d="M156.759604,10 C159.653795,10 162,7.76142375 162,5 C162,2.23857625 159.653795,0 156.759604,0 L29.2403956,0 C26.346205,0 24,2.23857625 24,5 C24,7.76142375 26.346205,10 29.2403956,10 L156.759604,10 Z" id="Shape" fill="#81BF63"></path>
            </g>
            <g id="Group" transform="translate(0.000000, 69.000000)" sketch:type="MSShapeGroup">
                <path d="M342.957607,10 C346.294729,10 349,7.76142375 349,5 C349,2.23857625 346.294729,-4.26325641e-13 342.957607,0 L320.042393,2.90138284e-12 C316.705271,3.32770848e-12 314,2.23857625 314,5 C314,7.76142375 316.705271,10 320.042393,10 L342.957607,10 Z" id="Shape" fill="#81BF63"></path>
                <path d="M512.762782,10 C515.655217,10 518,7.76142375 518,5 C518,2.23857625 515.655217,0 512.762782,0 L376.237218,0 C373.344783,0 371,2.23857625 371,5 C371,7.76142375 373.344783,10 376.237218,10 L512.762782,10 Z" id="Shape" fill="#55B36C"></path>
                <path d="M539.777394,10 C542.66176,10 545,7.76142375 545,5 C545,2.23857625 542.66176,0 539.777394,0 L493.222606,0 C490.33824,0 488,2.23857625 488,5 C488,7.76142375 490.33824,10 493.222606,10 L539.777394,10 Z" id="Shape" fill="#E7E879"></path>
                <path d="M286.751031,10 C289.649956,10 292,7.76142375 292,5 C292,2.23857625 289.649956,0 286.751031,0 L224.248969,0 C221.350044,0 219,2.23857625 219,5 C219,7.76142375 221.350044,10 224.248969,10 L286.751031,10 Z" id="Shape" fill="#E7E879"></path>
                <path d="M229.75104,10 C232.64996,10 235,7.76142375 235,5 C235,2.23857625 232.64996,0 229.75104,0 L65.2489604,0 C62.3500396,0 60,2.23857625 60,5 C60,7.76142375 62.3500396,10 65.2489604,10 L229.75104,10 Z" id="Shape" fill="#88C8AB"></path>
                <path d="M733.736722,10 C736.64355,10 739,7.76142375 739,5 C739,2.23857625 736.64355,-9.47390314e-14 733.736722,0 L596.263278,3.9316698e-12 C593.35645,4.02640884e-12 591,2.23857625 591,5 C591,7.76142375 593.35645,10 596.263278,10 L733.736722,10 Z" id="Shape" fill="#81BF63"></path>
                <path d="M17.8208059,10 C20.6811958,10 23,7.76142375 23,5 C23,2.23857625 20.6811958,4.73695157e-13 17.8208059,3.78956126e-13 L5.17919409,0 C2.31880418,-9.47390314e-14 9.81343664e-14,2.23857625 0,5 C-9.81343664e-14,7.76142375 2.31880418,10 5.17919409,10 L17.8208059,10 Z" id="Shape" fill="#E7E879"></path>
            </g>
            <g id="Group" transform="translate(144.000000, 27.000000)" sketch:type="MSShapeGroup">
                <path d="M347.664812,10 C350.611355,10 353,7.76142375 353,5 C353,2.23857625 350.611355,-2.27373675e-12 347.664812,0 L343.335188,3.3158661e-12 C340.388645,5.58960285e-12 338,2.23857625 338,5 C338,7.76142375 340.388645,10 343.335188,10 L347.664812,10 Z" id="Shape" fill="#50B584"></path>
                <path d="M255.738968,10 C258.644556,10 261,7.76142375 261,5 C261,2.23857625 258.644556,8.52651283e-13 255.738968,8.52651283e-13 L146.261032,0 C143.355444,0 141,2.23857625 141,5 C141,7.76142375 143.355444,10 146.261032,10 L255.738968,10 Z" id="Shape" fill="#50B584"></path>
                <path d="M424.759746,10 C427.653858,10 430,7.76142375 430,5 C430,2.23857625 427.653858,0 424.759746,0 L372.240254,0 C369.346142,0 367,2.23857625 367,5 C367,7.76142375 369.346142,10 372.240254,10 L424.759746,10 Z" id="Shape" fill="#88C8AB"></path>
                <path d="M53.7533761,10 C56.6510065,10 59,7.76142375 59,5 C59,2.23857625 56.6510065,5.21064673e-13 53.7533761,4.73695157e-13 L5.24662393,0 C2.34899355,-4.73695157e-14 0,2.23857625 0,5 C0,7.76142375 2.34899355,10 5.24662393,10 L53.7533761,10 Z" id="Shape" fill="#E7E879"></path>
            </g>
        </g>
    </g>
</svg>