<?xml version="1.0" encoding="UTF-8" standalone="no"?>
<svg width="28px" height="29px" viewBox="0 0 28 29" version="1.1" xmlns="http://www.w3.org/2000/svg" xmlns:xlink="http://www.w3.org/1999/xlink" xmlns:sketch="http://www.bohemiancoding.com/sketch/ns">
    <!-- Generator: Sketch 3.3.2 (12043) - http://www.bohemiancoding.com/sketch -->
    <title>popup-icon</title>
    <desc>Created with Sketch.</desc>
    <defs></defs>
    <g id="slice" stroke="none" stroke-width="1" fill="none" fill-rule="evenodd" sketch:type="MSPage">
        <g id="popup-icon" sketch:type="MSLayerGroup" fill="#E65E50">
            <path d="M11.792,11.097 L8.986,11.097 C8.986,9.50232536 9.42299563,8.26800437 10.297,7.394 C11.1710044,6.51999563 12.3593258,6.083 13.862,6.083 C15.4413412,6.083 16.6641623,6.49316257 17.5305,7.3135 C18.3968377,8.13383744 18.83,9.19566015 18.83,10.499 C18.83,11.2963373 18.6766682,12.0284967 18.37,12.6955 C18.0633318,13.3625033 17.5956698,14.0409966 16.967,14.731 C16.3229968,15.4670037 15.8476682,16.1186638 15.541,16.686 C15.2343318,17.2533362 15.081,17.9279961 15.081,18.71 L12.344,18.71 C12.344,17.7439952 12.5356647,16.8930037 12.919,16.157 C13.3023352,15.4209963 13.8006636,14.7003369 14.414,13.995 C14.9660028,13.3663302 15.3608321,12.8028358 15.5985,12.3045 C15.8361679,11.8061642 15.955,11.2656696 15.955,10.683 C15.955,10.084997 15.7671685,9.60583514 15.3915,9.2455 C15.0158315,8.88516487 14.5060032,8.705 13.862,8.705 C13.18733,8.705 12.6736684,8.91199793 12.321,9.326 C11.9683316,9.74000207 11.792,10.3303295 11.792,11.097 L11.792,11.097 Z M12.229,24 L12.229,20.987 L15.265,20.987 L15.265,24 L12.229,24 Z" id="？" sketch:type="MSShapeGroup"></path>
            <path d="M28,0 L28,29 L0,29 L0,0 L28,0 Z M3,3 L3,26 L25,26 L25,3 L3,3 Z" id="Shape" sketch:type="MSShapeGroup"></path>
        </g>
    </g>
</svg>