<?xml version="1.0" encoding="UTF-8" standalone="no"?>
<svg width="59px" height="55px" viewBox="0 0 59 55" version="1.1" xmlns="http://www.w3.org/2000/svg" xmlns:xlink="http://www.w3.org/1999/xlink" xmlns:sketch="http://www.bohemiancoding.com/sketch/ns">
    <!-- Generator: Sketch 3.3.2 (12043) - http://www.bohemiancoding.com/sketch -->
    <title>search@3x</title>
    <desc>Created with Sketch.</desc>
    <defs></defs>
    <g id="slice" stroke="none" stroke-width="1" fill="none" fill-rule="evenodd" sketch:type="MSPage">
        <g id="Oval-127-+-Rectangle-480" sketch:type="MSLayerGroup" transform="translate(30.792893, 29.085786) rotate(-45.000000) translate(-30.792893, -29.085786) translate(22.792893, 16.085786)" fill="#50B584">
            <path d="M8,15.8428571 C12.1517397,15.8428571 15.5,12.3989322 15.5,8.17142857 C15.5,3.94392492 12.1517397,0.5 8,0.5 C3.84826034,0.5 0.5,3.94392492 0.5,8.17142857 C0.5,12.3989322 3.84826034,15.8428571 8,15.8428571 L8,15.8428571 Z M8,12.8428571 C5.52432266,12.8428571 3.5,10.7606967 3.5,8.17142857 C3.5,5.58216045 5.52432266,3.5 8,3.5 C10.4756773,3.5 12.5,5.58216045 12.5,8.17142857 C12.5,10.7606967 10.4756773,12.8428571 8,12.8428571 L8,12.8428571 Z" id="Shape" sketch:type="MSShapeGroup"></path>
            <path d="M6.5,14.5 L6.5,24.4121141 C6.5,25.2405413 7.17157288,25.9121141 8,25.9121141 C8.82842712,25.9121141 9.5,25.2405413 9.5,24.4121141 L9.5,14.5 C9.5,13.6715729 8.82842712,13 8,13 C7.17157288,13 6.5,13.6715729 6.5,14.5 L6.5,14.5 Z" id="Shape" sketch:type="MSShapeGroup"></path>
        </g>
    </g>
</svg>