<?xml version="1.0" encoding="UTF-8" standalone="no"?>
<svg width="228px" height="144px" viewBox="0 0 228 144" version="1.1" xmlns="http://www.w3.org/2000/svg" xmlns:xlink="http://www.w3.org/1999/xlink" xmlns:sketch="http://www.bohemiancoding.com/sketch/ns">
    <!-- Generator: Sketch 3.3.2 (12043) - http://www.bohemiancoding.com/sketch -->
    <title>title@3x</title>
    <desc>Created with Sketch.</desc>
    <defs></defs>
    <g id="slice" stroke="none" stroke-width="1" fill="none" fill-rule="evenodd" sketch:type="MSPage">
        <g id="title" sketch:type="MSLayerGroup" transform="translate(6.500000, 8.000000)">
            <g id="Group" transform="translate(1.000000, 74.192000)" fill="#6C6C6C" sketch:type="MSShapeGroup">
                <path d="M5.06550311,8 L23.9344969,8 C26.1798123,8 28,6.209139 28,4 C28,1.790861 26.1798123,0 23.9344969,0 L5.06550311,0 C2.82018774,0 1,1.790861 1,4 C1,6.209139 2.82018774,8 5.06550311,8 L5.06550311,8 Z" id="Shape"></path>
                <path d="M94.0655031,8 L112.934497,8 C115.179812,8 117,6.209139 117,4 C117,1.790861 115.179812,0 112.934497,0 L94.0655031,0 C91.8201877,0 90,1.790861 90,4 C90,6.209139 91.8201877,8 94.0655031,8 L94.0655031,8 Z" id="Shape"></path>
                <path d="M44,8 C46.209139,8 48,6.209139 48,4 C48,1.790861 46.209139,0 44,0 C41.790861,0 40,1.790861 40,4 C40,6.209139 41.790861,8 44,8 L44,8 Z" id="Shape"></path>
                <path d="M127.171573,6.82842712 C128.73367,8.39052429 131.26633,8.39052429 132.828427,6.82842712 C134.390524,5.26632996 134.390524,2.73367004 132.828427,1.17157288 C131.26633,-0.390524292 128.73367,-0.390524292 127.171573,1.17157288 C125.609476,2.73367004 125.609476,5.26632996 127.171573,6.82842712 L127.171573,6.82842712 Z" id="Shape"></path>
            </g>
            <path d="M3.19465325,10.8523819 L17.2646533,10.8523819 L17.2646533,19.9243819 L15.7526533,19.9243819 L15.7526533,18.6223819 L4.70665325,18.6223819 L4.70665325,19.9243819 L3.19465325,19.9243819 L3.19465325,10.8523819 Z M15.7526533,12.3013819 L4.70665325,12.3013819 L4.70665325,17.1733819 L15.7526533,17.1733819 L15.7526533,12.3013819 Z M3.04765325,6.77838192 C4.90966256,5.00037303 6.74364422,2.87239431 8.54965325,0.394381918 L9.85165325,1.10838192 C8.2416452,3.32039298 6.4916627,5.38537233 4.60165325,7.30338192 C8.01767033,7.16338122 11.8116324,7.03038255 15.9836533,6.90438192 C15.1156489,5.79837639 14.1566585,4.68538752 13.1066533,3.56538192 L14.2826533,2.80938192 C16.3826638,4.9653927 18.1886457,7.135371 19.7006533,9.31938192 L18.3356533,10.1593819 C17.9436513,9.55737891 17.5376554,8.96938479 17.1176533,8.39538192 C11.5176253,8.49338241 6.40767635,8.7243801 1.78765325,9.08838192 L1.57765325,7.47138192 C2.13765605,7.41538164 2.62765115,7.18438395 3.04765325,6.77838192 L3.04765325,6.77838192 Z M34.3947824,3.35538192 L38.5947824,3.35538192 L38.5947824,4.38438192 L34.3947824,4.38438192 L34.3947824,3.35538192 Z M34.4787824,5.32938192 L38.5947824,5.32938192 L38.5947824,6.35838192 L34.4787824,6.35838192 L34.4787824,5.32938192 Z M38.5527824,7.28238192 L38.5527824,10.4533819 L34.4787824,10.4533819 L34.4787824,7.28238192 L38.5527824,7.28238192 Z M37.5237824,8.31138192 L35.5077824,8.31138192 L35.5077824,9.42438192 L37.5237824,9.42438192 L37.5237824,8.31138192 Z M38.9937824,2.41038192 L34.1637824,2.41038192 L34.1637824,1.38138192 L35.8227824,1.38138192 C35.7247819,1.00338003 35.612783,0.625383808 35.4867824,0.247381918 L36.9147824,0.0373819178 C37.0687831,0.485384158 37.2017818,0.933379678 37.3137824,1.38138192 L38.9937824,1.38138192 L38.9937824,2.41038192 Z M27.4647824,3.96438192 C26.792779,3.27837849 25.9527874,2.54338584 24.9447824,1.75938192 L25.9527824,0.688381918 C27.2267887,1.7243871 28.0807802,2.46637968 28.5147824,2.91438192 L27.4647824,3.96438192 Z M27.3807824,9.61338192 C26.7227791,8.87137821 25.9037873,8.07338619 24.9237824,7.21938192 L25.9737824,6.21138192 C27.2057885,7.33138752 28.0317803,8.12937954 28.4517824,8.60538192 L27.3807824,9.61338192 Z M25.2597824,19.6933819 C25.9317857,17.3833704 26.5547795,14.6953972 27.1287824,11.6293819 L28.5357824,11.9863819 C27.7517784,15.9204016 27.1287847,18.6293745 26.6667824,20.1133819 L25.2597824,19.6933819 Z M30.2157824,11.2723819 L42.9837824,11.2723819 L42.9837824,14.6743819 L32.3157824,14.6743819 L32.1267824,15.8713819 L43.5507824,15.8713819 L43.5507824,17.6983819 C43.5507824,19.1263891 42.8367895,19.8403819 41.4087824,19.8403819 L36.0537824,19.8403819 L35.7177824,18.5803819 L40.9467824,18.5803819 C41.674786,18.5803819 42.0387824,18.2163856 42.0387824,17.4883819 L42.0387824,16.9633819 L30.4677824,16.9633819 L30.9507824,13.5613819 L41.4507824,13.5613819 L41.4507824,12.3853819 L30.2157824,12.3853819 L30.2157824,11.2723819 Z M44.2647824,1.69638192 C43.2987775,3.16638927 42.2067885,4.62237471 40.9887824,6.06438192 C41.6327856,5.99438157 42.3257787,5.9313822 43.0677824,5.87538192 C42.9277817,5.46937989 42.7807831,5.06338395 42.6267824,4.65738192 L43.5717824,4.48938192 C44.0057845,5.49738696 44.355781,6.47737716 44.6217824,7.42938192 L43.5507824,7.61838192 C43.4947821,7.38038073 43.4317827,7.15638297 43.3617824,6.94638192 C41.891775,7.10038269 40.5477885,7.26838101 39.3297824,7.45038192 L38.9307824,6.33738192 C39.3647845,6.21138129 39.7287809,5.96638374 40.0227824,5.60238192 C40.3867842,5.14037961 40.7647804,4.65738444 41.1567824,4.15338192 C40.4987791,4.22338227 39.8827852,4.30738143 39.3087824,4.40538192 L38.9307824,3.25038192 C39.3367844,3.15238143 39.6377814,2.95638339 39.8337824,2.66238192 C40.3097847,1.94837835 40.7717801,1.13638647 41.2197824,0.226381918 L42.3327824,0.520381918 C41.8987802,1.38838626 41.4017852,2.24237772 40.8417824,3.08238192 C41.2057842,3.04038171 41.5907803,3.00538206 41.9967824,2.97738192 C42.4027844,2.41737912 42.8087803,1.81538514 43.2147824,1.17138192 L44.2647824,1.69638192 Z M39.4767824,7.99638192 L40.5267824,8.05938192 C40.4847822,8.96938647 40.3377836,9.82337793 40.0857824,10.6213819 L38.9727824,10.4533819 C39.2527838,9.73937835 39.4207821,8.92038654 39.4767824,7.99638192 L39.4767824,7.99638192 Z M41.4927824,10.4743819 C41.4787823,9.64837779 41.4017831,8.8573857 41.2617824,8.10138192 L42.2277824,7.97538192 C42.3957832,8.78738598 42.5007822,9.60637779 42.5427824,10.4323819 L41.4927824,10.4743819 Z M43.5507824,10.2853819 C43.4527819,9.47337786 43.2917835,8.70338556 43.0677824,7.97538192 L44.0127824,7.74438192 C44.2787837,8.52838584 44.4747817,9.312378 44.6007824,10.0963819 L43.5507824,10.2853819 Z M33.9327824,1.59138192 C33.0087777,3.0473892 31.9657882,4.51037457 30.8037824,5.98038192 C31.4057854,5.8963815 32.042779,5.81938227 32.7147824,5.74938192 C32.6167819,5.34337989 32.4977831,4.95138381 32.3577824,4.57338192 L33.3237824,4.42638192 C33.7017843,5.44838703 33.9957813,6.42837723 34.2057824,7.36638192 L33.1137824,7.51338192 C33.0717822,7.27538073 33.0297826,7.03738311 32.9877824,6.79938192 C31.5877754,6.98138283 30.3137881,7.1843808 29.1657824,7.40838192 L28.7457824,6.29538192 C29.1657845,6.15538122 29.5297808,5.89638381 29.8377824,5.51838192 C30.173784,5.07037968 30.5237805,4.60138437 30.8877824,4.11138192 C30.215779,4.20938241 29.5927852,4.32138129 29.0187824,4.44738192 L28.5777824,3.33438192 C28.9697843,3.22238136 29.2777812,2.9983836 29.5017824,2.66238192 C29.9777847,1.94837835 30.4397801,1.13638647 30.8877824,0.226381918 L32.0007824,0.520381918 C31.5667802,1.38838626 31.0697852,2.23537779 30.5097824,3.06138192 C30.8737842,3.00538164 31.2797801,2.9493822 31.7277824,2.89338192 C32.1057843,2.33337912 32.4837805,1.73838507 32.8617824,1.10838192 L33.9327824,1.59138192 Z M28.9767824,7.99638192 L30.0057824,8.05938192 C29.9777822,8.96938647 29.8377836,9.82337793 29.5857824,10.6213819 L28.4727824,10.4533819 C28.7527838,9.73937835 28.9207821,8.92038654 28.9767824,7.99638192 L28.9767824,7.99638192 Z M30.9087824,10.4533819 C30.9227824,9.62737779 30.8737829,8.8363857 30.7617824,8.08038192 L31.7277824,7.99638192 C31.8677831,8.79438591 31.9447823,9.60637779 31.9587824,10.4323819 L30.9087824,10.4533819 Z M32.8827824,10.0963819 C32.7987819,9.35437821 32.6657833,8.64738528 32.4837824,7.97538192 L33.4287824,7.76538192 C33.6667836,8.47938549 33.8347819,9.20737821 33.9327824,9.94938192 L32.8827824,10.0963819 Z M68.9759115,10.9363819 L49.6139115,10.9363819 L49.6139115,9.59238192 L58.6439115,9.59238192 L58.6439115,7.57638192 L50.9369115,7.57638192 L50.9369115,6.23238192 L58.6439115,6.23238192 L58.6439115,4.13238192 L50.2649115,4.13238192 L50.2649115,2.78838192 L55.3889115,2.78838192 L54.5489115,0.709381918 L56.0609115,0.436381918 L56.9219115,2.78838192 L61.8989115,2.78838192 L62.9909115,0.457381918 L64.5029115,0.646381918 L63.4529115,2.78838192 L68.4089115,2.78838192 L68.4089115,4.13238192 L60.1559115,4.13238192 L60.1559115,6.23238192 L67.7369115,6.23238192 L67.7369115,7.57638192 L60.1559115,7.57638192 L60.1559115,9.59238192 L68.9759115,9.59238192 L68.9759115,10.9363819 Z M59.3159115,15.1993819 C57.9019044,17.6353941 54.744936,19.1613788 49.8449115,19.7773819 L49.2989115,18.3073819 C53.9049345,17.7613792 56.8099055,16.4523923 58.0139115,14.3803819 L49.7819115,14.3803819 L49.7819115,13.0363819 L58.5179115,13.0363819 C58.5879118,12.6863802 58.6299114,12.3293837 58.6439115,11.9653819 L58.6439115,11.5663819 L60.1559115,11.5663819 L60.1559115,11.9653819 C60.1419114,12.3293837 60.1139117,12.6863802 60.0719115,13.0363819 L68.8079115,13.0363819 L68.8079115,14.3803819 L60.3029115,14.3803819 C62.2349211,16.4383922 65.244891,17.7683789 69.3329115,18.3703819 L68.5979115,19.9663819 C64.4818909,19.1963781 61.3879218,17.607394 59.3159115,15.1993819 L59.3159115,15.1993819 Z M74.3460406,13.0783819 L83.2080406,13.0783819 L83.2080406,11.2723819 L81.1500406,11.2723819 L81.1500406,2.11638192 L83.0400406,2.11638192 L83.4180406,0.373381918 L84.8460406,0.562381918 L84.4890406,2.11638192 L86.6940406,2.11638192 L86.6940406,11.2723819 L84.7200406,11.2723819 L84.7200406,13.0783819 L93.4560406,13.0783819 L93.4560406,14.5063819 L85.6020406,14.5063819 C88.1080531,15.9903893 90.7890263,17.0963783 93.6450406,17.8243819 L93.0360406,19.3993819 C90.0820258,18.4613772 87.3100535,17.1313905 84.7200406,15.4093819 L84.7200406,19.9243819 L83.2080406,19.9243819 L83.2080406,15.3043819 C80.6740279,17.2223915 77.8880558,18.5873779 74.8500406,19.3993819 L74.1990406,17.9713819 C77.1390553,17.2993786 79.8060286,16.1443901 82.2000406,14.5063819 L74.3460406,14.5063819 L74.3460406,13.0783819 Z M82.5150406,5.98038192 L85.3290406,5.98038192 L85.3290406,3.48138192 L82.5150406,3.48138192 L82.5150406,5.98038192 Z M85.3290406,7.32438192 L82.5150406,7.32438192 L82.5150406,9.90738192 L85.3290406,9.90738192 L85.3290406,7.32438192 Z M80.8770406,2.83038192 C79.7010347,5.16839361 78.3290484,7.50637023 76.7610406,9.84438192 C77.5030443,9.73238136 78.3010363,9.62738241 79.1550406,9.52938192 C79.04304,8.95537905 78.9030414,8.33938521 78.7350406,7.68138192 L79.8060406,7.38738192 C80.2680429,8.92738962 80.5900397,10.3413755 80.7720406,11.6293819 L79.5330406,11.9653819 C79.4910404,11.6013801 79.4420409,11.1953842 79.3860406,10.7473819 C77.7900326,10.957383 76.3410471,11.1953806 75.0390406,11.4613819 L74.5560406,10.1803819 C75.046043,10.0403812 75.4170393,9.76738395 75.6690406,9.36138192 C76.2990437,8.39537709 76.9220375,7.38038724 77.5380406,6.31638192 C76.6560362,6.40038234 75.8370444,6.51238122 75.0810406,6.65238192 L74.6610406,5.37138192 C74.6750407,5.35738185 74.6960405,5.35038192 74.7240406,5.35038192 L74.7660406,5.35038192 C75.1580426,5.23838136 75.4450397,5.02138353 75.6270406,4.69938192 C76.2710438,3.48137583 76.8800377,2.10238962 77.4540406,0.562381918 L78.7560406,0.856381918 C78.1960378,2.24238885 77.5310444,3.65637471 76.7610406,5.09838192 C77.2230429,5.04238164 77.7270379,4.99338213 78.2730406,4.95138192 C78.7350429,4.13937786 79.1830384,3.27838647 79.6170406,2.36838192 L80.8770406,2.83038192 Z M93.2250406,2.57838192 C92.0350346,4.91639361 90.6490485,7.26137016 89.0670406,9.61338192 C89.8510445,9.51538143 90.698036,9.42438234 91.6080406,9.34038192 C91.4540398,8.72437884 91.2720416,8.06638542 91.0620406,7.36638192 L92.1120406,7.05138192 C92.6720434,8.66138997 93.0640395,10.159375 93.2880406,11.5453819 L92.1120406,11.9023819 C92.0560403,11.4823798 91.9790411,11.0343843 91.8810406,10.5583819 C90.2150323,10.7263828 88.6960475,10.9363807 87.3240406,11.1883819 L86.8830406,9.88638192 C87.359043,9.77438136 87.7300393,9.51538395 87.9960406,9.10938192 C88.6400438,8.11537695 89.2770374,7.09338717 89.9070406,6.04338192 C88.9690359,6.14138241 88.1010446,6.26038122 87.3030406,6.40038192 L86.8830406,5.11938192 C86.8970407,5.10538185 86.9180405,5.09838192 86.9460406,5.09838192 L86.9880406,5.09838192 C87.3800426,4.98638136 87.6600398,4.77638346 87.8280406,4.46838192 C88.4580437,3.2643759 89.0530378,1.90638948 89.6130406,0.394381918 L90.8940406,0.688381918 C90.3480379,2.07438885 89.7040443,3.46737492 88.9620406,4.86738192 C89.4800432,4.81138164 90.0330377,4.7553822 90.6210406,4.69938192 C91.111043,3.87337779 91.5730384,3.0123864 92.0070406,2.11638192 L93.2250406,2.57838192 Z M100.96817,15.9343819 L100.96817,7.32438192 L98.7421697,7.32438192 L98.7421697,5.81238192 L100.96817,5.81238192 L100.96817,0.394381918 L102.48017,0.394381918 L102.48017,5.81238192 L104.41217,5.81238192 L104.41217,7.32438192 L102.48017,7.32438192 L102.48017,15.6193819 C103.264174,15.4513811 104.027166,15.2833828 104.76917,15.1153819 L104.91617,16.5433819 C103.01216,17.1033847 100.919181,17.57938 98.6371697,17.9713819 L98.3851697,16.3963819 C99.253174,16.2423811 100.114165,16.0883827 100.96817,15.9343819 L100.96817,15.9343819 Z M116.46617,17.0893819 L116.46617,15.0103819 L117.97817,15.3253819 L117.97817,17.3203819 C117.97817,18.7623891 117.313176,19.4833819 115.98317,19.4833819 L108.29717,19.4833819 C106.967163,19.4833819 106.30217,18.8113886 106.30217,17.4673819 L106.30217,8.22738192 L104.55917,8.77338192 L104.55917,7.19838192 L106.30217,6.65238192 L106.30217,2.03238192 L107.81417,2.03238192 L107.81417,6.23238192 L110.88017,5.35038192 L110.88017,0.478381918 L112.41317,0.478381918 L112.41317,4.88838192 L116.94917,3.60738192 L116.94917,11.5453819 C116.94917,12.7773881 116.333176,13.3933819 115.10117,13.3933819 L113.92517,13.3933819 L113.58917,11.8813819 L114.87017,11.8813819 C115.304172,11.8813819 115.52117,11.6643841 115.52117,11.2303819 L115.52117,5.62338192 L112.41317,6.48438192 L112.41317,15.2413819 L110.88017,15.2413819 L110.88017,6.92538192 L107.81417,7.80738192 L107.81417,17.1523819 C107.81417,17.6843846 108.080167,17.9503819 108.61217,17.9503819 L115.60517,17.9503819 C116.179173,17.9503819 116.46617,17.6633848 116.46617,17.0893819 L116.46617,17.0893819 Z" id="台灣美樂地" fill="#4A4A4A" sketch:type="MSShapeGroup"></path>
            <path d="M9.50765325,39.3425452 L6.14765325,39.3425452 L6.14765325,52.9505452 L4.32065325,52.9505452 L4.32065325,39.3425452 L0.939653252,39.3425452 L0.939653252,37.5785452 L9.50765325,37.5785452 L9.50765325,39.3425452 Z M28.5067824,52.9505452 L26.5957824,52.9505452 L24.2227824,47.8055452 L17.8807824,47.8055452 L15.5287824,52.9505452 L13.5337824,52.9505452 L20.7997824,36.9695452 L21.3457824,36.9695452 L28.5067824,52.9505452 Z M23.4037824,45.9785452 L21.0727824,40.7915452 L18.7207824,45.9785452 L23.4037824,45.9785452 Z M35.6409115,52.9505452 L33.8349115,52.9505452 L33.8349115,37.5785452 L35.6409115,37.5785452 L35.6409115,52.9505452 Z M60.0580406,37.5785452 L55.6480406,53.3285452 L55.1230406,53.3285452 L50.7550406,41.8415452 L46.3030406,53.3285452 L45.7990406,53.3285452 L41.4730406,37.5785452 L43.3420406,37.5785452 L46.3030406,48.4565452 L50.5030406,37.5785452 L51.0070406,37.5785452 L55.1650406,48.4775452 L58.1890406,37.5785452 L60.0580406,37.5785452 Z M79.6451697,52.9505452 L77.7341697,52.9505452 L75.3611697,47.8055452 L69.0191697,47.8055452 L66.6671697,52.9505452 L64.6721697,52.9505452 L71.9381697,36.9695452 L72.4841697,36.9695452 L79.6451697,52.9505452 Z M74.5421697,45.9785452 L72.2111697,40.7915452 L69.8591697,45.9785452 L74.5421697,45.9785452 Z M97.3422988,52.9505452 L96.7962988,52.9505452 L87.0522988,41.7995452 L87.0522988,52.9505452 L85.2042988,52.9505452 L85.2042988,37.5785452 L85.7502988,37.5785452 L95.5572988,48.8765452 L95.5572988,37.5785452 L97.3422988,37.5785452 L97.3422988,52.9505452 Z M129.733557,52.9505452 L127.948557,52.9505452 L126.520557,42.4925452 L121.354557,52.9505452 L120.808557,52.9505452 L115.579557,42.4085452 L114.151557,52.9505452 L112.408557,52.9505452 L114.592557,37.5785452 L115.033557,37.5785452 L121.081557,49.7795452 L127.087557,37.5785452 L127.528557,37.5785452 L129.733557,52.9505452 Z M144.931686,39.3635452 L137.791686,39.3635452 L137.791686,43.7735452 L144.868686,43.7735452 L144.868686,45.5375452 L137.791686,45.5375452 L137.791686,51.1655452 L144.868686,51.1655452 L144.868686,52.9505452 L135.985686,52.9505452 L135.985686,37.5785452 L144.931686,37.5785452 L144.931686,39.3635452 Z M158.407815,52.9505452 L150.784815,52.9505452 L150.784815,37.5785452 L152.611815,37.5785452 L152.611815,51.2075452 L158.407815,51.2075452 L158.407815,52.9505452 Z M171.400944,37.2005452 C172.898952,37.2005452 174.277938,37.5540416 175.537944,38.2610452 C176.797951,38.9680487 177.788441,39.944539 178.509444,41.1905452 C179.230448,42.4365514 179.590944,43.7910379 179.590944,45.2540452 C179.590944,46.7170525 179.233948,48.071539 178.519944,49.3175452 C177.805941,50.5635514 176.825951,51.5435416 175.579944,52.2575452 C174.333938,52.9715488 172.979452,53.3285452 171.516444,53.3285452 C170.053437,53.3285452 168.691951,52.9750487 167.431944,52.2680452 C166.171938,51.5610416 165.184948,50.5880514 164.470944,49.3490452 C163.756941,48.110039 163.399944,46.7590525 163.399944,45.2960452 C163.399944,43.8330379 163.756941,42.4750514 164.470944,41.2220452 C165.184948,39.9690389 166.161438,38.9855488 167.400444,38.2715452 C168.639451,37.5575416 169.972937,37.2005452 171.400944,37.2005452 L171.400944,37.2005452 Z M171.463944,51.5645452 C173.213953,51.5645452 174.694438,50.9695511 175.905444,49.7795452 C177.11645,48.5895392 177.721944,47.0985541 177.721944,45.3065452 C177.721944,43.5145362 177.109451,42.0095513 175.884444,40.7915452 C174.659438,39.5735391 173.185953,38.9645452 171.463944,38.9645452 C169.699936,38.9645452 168.22645,39.5770391 167.043444,40.8020452 C165.860438,42.0270513 165.268944,43.5180364 165.268944,45.2750452 C165.268944,47.032054 165.877938,48.5195391 167.095944,49.7375452 C168.31395,50.9555513 169.769936,51.5645452 171.463944,51.5645452 L171.463944,51.5645452 Z M185.864074,37.5785452 L189.140074,37.5785452 C191.352085,37.5785452 192.962068,37.7430435 193.970074,38.0720452 C194.978079,38.4010468 195.84957,38.9120417 196.584574,39.6050452 C197.319577,40.2980486 197.883072,41.1415402 198.275074,42.1355452 C198.667075,43.1295502 198.863074,44.2775387 198.863074,45.5795452 C198.863074,46.8815517 198.572576,48.1100394 197.991574,49.2650452 C197.410571,50.420051 196.584579,51.3230419 195.513574,51.9740452 C194.442568,52.6250484 192.878084,52.9505452 190.820074,52.9505452 L185.864074,52.9505452 L185.864074,37.5785452 Z M187.607074,51.2285452 L189.203074,51.2285452 C190.981082,51.2285452 192.276069,51.1375461 193.088074,50.9555452 C193.900078,50.7735443 194.60707,50.4235478 195.209074,49.9055452 C195.811077,49.3875426 196.269572,48.7540489 196.584574,48.0050452 C196.899575,47.2560414 197.057074,46.3915501 197.057074,45.4115452 C197.057074,44.4315403 196.871575,43.5250493 196.500574,42.6920452 C196.129572,41.859041 195.601077,41.1800478 194.915074,40.6550452 C194.22907,40.1300426 193.424078,39.7800461 192.500074,39.6050452 C191.576069,39.4300443 190.253082,39.3425452 188.531074,39.3425452 L187.607074,39.3425452 L187.607074,51.2285452 Z M215.426203,37.5785452 L210.512203,45.6425452 L210.512203,52.9505452 L208.748203,52.9505452 L208.748203,45.6425452 L203.750203,37.5785452 L205.850203,37.5785452 L209.609203,43.6475452 L213.326203,37.5785452 L215.426203,37.5785452 Z" id="TAIWAN-MELODY" fill="#4A4A4A" sketch:type="MSShapeGroup"></path>
            <path d="M2.97465325,113.365924 L3.64665325,112.837924 C4.28665645,113.381927 4.85198413,113.936588 5.34265325,114.501924 L4.63865325,115.061924 C4.19065101,114.496588 3.63598989,113.93126 2.97465325,113.365924 L2.97465325,113.365924 Z M14.7506533,122.229924 L4.44665325,122.229924 C3.65731597,123.733931 2.76132493,125.141917 1.75865325,126.453924 L1.18265325,125.637924 C3.36933085,122.715243 4.96931485,119.579274 5.98265325,116.229924 L2.19065325,116.229924 L2.19065325,115.381924 L6.22265325,115.381924 C6.45732109,114.496586 6.65465245,113.589929 6.81465325,112.661924 L7.75865325,112.725924 C7.56665229,113.621928 7.35332109,114.507253 7.11865325,115.381924 L14.0466533,115.381924 L14.0466533,115.893924 L13.3266533,118.453924 L14.4786533,118.453924 L14.4786533,118.949924 L13.9186533,121.381924 L15.6626533,121.381924 L15.6626533,123.685924 C15.6626533,124.773929 15.6146537,125.525922 15.5186533,125.941924 C15.4226528,126.357926 15.1719886,126.685923 14.7666533,126.925924 C14.3613179,127.165925 13.6839913,127.285924 12.7346533,127.285924 L11.2466533,127.285924 L11.0066533,126.453924 L12.7346533,126.453924 C13.3959899,126.453924 13.8706518,126.363258 14.1586533,126.181924 C14.435988,126.00059 14.6039863,125.723259 14.6626533,125.349924 C14.7213202,124.976589 14.7506533,124.363261 14.7506533,123.509924 L14.7506533,122.229924 L14.7506533,122.229924 Z M13.5186533,119.285924 L5.79065325,119.285924 C5.50265181,120.000594 5.19865485,120.699254 4.87865325,121.381924 L13.0226533,121.381924 L13.5186533,119.285924 Z M13.0546533,116.229924 L6.87865325,116.229924 C6.64398541,116.965928 6.39865453,117.707253 6.14265325,118.453924 L12.3986533,118.453924 L13.0546533,116.229924 Z M7.02265325,124.037924 L7.85465325,123.893924 C8.23865517,124.843262 8.52665229,125.760586 8.71865325,126.645924 L7.75865325,126.789924 C7.63065261,125.947253 7.38532173,125.029929 7.02265325,124.037924 L7.02265325,124.037924 Z M9.35865325,123.765924 L10.1266533,123.557924 C10.5426553,124.368595 10.8679854,125.15792 11.1026533,125.925924 L10.2546533,126.133924 C10.0626523,125.39792 9.76398861,124.608595 9.35865325,123.765924 L9.35865325,123.765924 Z M11.5826533,123.397924 L12.2866533,123.157924 C12.6813219,123.840594 13.006652,124.507254 13.2626533,125.157924 L12.4626533,125.397924 C12.2706523,124.779254 11.9773219,124.112594 11.5826533,123.397924 L11.5826533,123.397924 Z M3.72665325,126.789924 C4.28132269,125.840586 4.73465149,124.837929 5.08665325,123.781924 L5.90265325,124.037924 C5.59331837,125.136596 5.17198925,126.176586 4.63865325,127.157924 L3.72665325,126.789924 Z M24.8552264,116.629924 L33.7192264,116.629924 L33.7192264,117.477924 L24.8552264,117.477924 L24.8552264,116.629924 Z M24.8552264,118.949924 L33.6552264,118.949924 L33.6552264,119.797924 L24.8552264,119.797924 L24.8552264,118.949924 Z M33.5752264,121.157924 L33.5752264,124.693924 L24.9672264,124.693924 L24.9672264,121.157924 L33.5752264,121.157924 Z M32.6632264,122.069924 L25.8792264,122.069924 L25.8792264,123.797924 L32.6632264,123.797924 L32.6632264,122.069924 Z M34.6632264,115.189924 L23.8472264,115.189924 L23.8472264,114.293924 L28.9832264,114.293924 C28.8872259,113.803255 28.7485607,113.296593 28.5672264,112.773924 L29.4952264,112.661924 C29.6552272,113.205927 29.7885592,113.749921 29.8952264,114.293924 L34.6632264,114.293924 L34.6632264,115.189924 Z M22.3432264,116.293924 C21.8312239,115.472586 21.1805637,114.555262 20.3912264,113.541924 L21.1592264,113.029924 C22.1512314,114.34193 22.8072248,115.269921 23.1272264,115.813924 L22.3432264,116.293924 Z M22.8872264,118.357924 L22.8872264,124.741924 C23.0152271,124.773924 23.1645589,124.83259 23.3352264,124.917924 C23.6765615,125.088591 24.1458901,125.328589 24.7432264,125.637924 C25.3405627,125.947259 26.3538859,126.101924 27.7832264,126.101924 L34.8232264,126.101924 L34.5672264,127.013924 L27.7832264,127.013924 C26.3005523,127.013924 25.2312297,126.845926 24.5752264,126.509924 C23.9192231,126.173922 23.468561,125.936591 23.2232264,125.797924 C22.9778919,125.659257 22.7272277,125.584591 22.4712264,125.573924 C22.1298914,125.637924 21.4472315,126.229918 20.4232264,127.349924 L19.7192264,126.629924 C20.1458952,126.235255 20.6205571,125.80326 21.1432264,125.333924 C21.4418946,125.067256 21.7192251,124.880591 21.9752264,124.773924 L21.9752264,119.253924 L19.9752264,119.253924 L19.9752264,118.357924 L22.8872264,118.357924 Z M52.9437996,117.877924 L41.5357996,117.877924 L41.5357996,119.605924 C41.5357996,120.053926 41.5197998,120.491255 41.4877996,120.917924 L49.7917996,120.917924 L49.7917996,127.477924 L48.8797996,127.477924 L48.8797996,121.829924 L41.4077996,121.829924 C41.0984647,124.048602 40.3358057,125.936583 39.1197996,127.493924 L38.3837996,126.837924 C39.8878071,125.003248 40.6397996,122.592605 40.6397996,119.605924 L40.6397996,112.917924 L41.5357996,112.917924 L41.5357996,116.981924 L47.2637996,116.981924 L47.2637996,112.725924 L48.1757996,112.725924 L48.1757996,116.981924 L52.9437996,116.981924 L52.9437996,117.877924 Z M64.8243728,118.501924 L64.8243728,125.669924 L71.4803728,125.669924 L71.4803728,126.565924 L57.2403728,126.565924 L57.2403728,125.669924 L63.9283728,125.669924 L63.9283728,118.501924 L58.2323728,118.501924 L58.2323728,117.605924 L63.9283728,117.605924 L63.9283728,112.725924 L64.8243728,112.725924 L64.8243728,117.605924 L70.4243728,117.605924 L70.4243728,118.501924 L64.8243728,118.501924 Z M77.2649459,124.549924 L77.2649459,117.765924 L75.5209459,117.765924 L75.5209459,116.853924 L77.2649459,116.853924 L77.2649459,112.661924 L78.1769459,112.661924 L78.1769459,116.853924 L79.7769459,116.853924 L79.7769459,117.765924 L78.1769459,117.765924 L78.1769459,124.389924 C78.8169491,124.251257 79.4409429,124.112591 80.0489459,123.973924 L80.1289459,124.837924 C78.6889387,125.243259 77.0996213,125.584589 75.3609459,125.861924 L75.2169459,124.933924 C75.9102827,124.805923 76.5929426,124.677925 77.2649459,124.549924 L77.2649459,124.549924 Z M89.1529459,125.509924 L89.1529459,123.797924 L90.0489459,124.037924 L90.0489459,125.429924 C90.0489459,126.528596 89.5422843,127.077924 88.5289459,127.077924 L82.8649459,127.077924 C81.8409408,127.077924 81.3289459,126.565929 81.3289459,125.541924 L81.3289459,118.437924 L79.9049459,118.869924 L79.9049459,117.925924 L81.3289459,117.493924 L81.3289459,113.909924 L82.2409459,113.909924 L82.2409459,117.221924 L84.8329459,116.469924 L84.8329459,112.725924 L85.7449459,112.725924 L85.7449459,116.181924 L89.2489459,115.157924 L89.2489459,121.029924 C89.2489459,121.979262 88.774284,122.453924 87.8249459,122.453924 L87.0249459,122.453924 L86.7689459,121.541924 L87.8409459,121.541924 C88.1716143,121.541924 88.3369459,121.376592 88.3369459,121.045924 L88.3369459,116.389924 L85.7449459,117.141924 L85.7449459,123.909924 L84.8329459,123.909924 L84.8329459,117.397924 L82.2409459,118.165924 L82.2409459,125.557924 C82.2409459,125.963259 82.4436106,126.165924 82.8489459,126.165924 L88.4969459,126.165924 C88.9342815,126.165924 89.1529459,125.947259 89.1529459,125.509924 L89.1529459,125.509924 Z M101.193519,119.285924 L102.873519,119.285924 L100.825519,123.493924 L99.8975191,123.493924 L101.193519,119.285924 Z M125.602092,123.157924 L115.714092,123.157924 C114.860755,123.829927 113.948764,124.395255 112.978092,124.853924 L112.434092,124.085924 C114.087434,123.371254 115.516753,122.395263 116.722092,121.157924 L114.466092,121.157924 L114.466092,116.261924 C115.948766,116.251257 117.458085,116.096592 118.994092,115.797924 L119.426092,116.533924 C118.167419,116.843259 116.818099,117.02459 115.378092,117.077924 L115.378092,118.229924 L119.218092,118.229924 L119.218092,119.013924 L115.378092,119.013924 L115.378092,120.325924 L124.530092,120.325924 L124.530092,119.013924 L120.466092,119.013924 L120.466092,118.229924 L124.530092,118.229924 L124.530092,116.853924 L120.338092,116.853924 L120.338092,116.005924 L125.442092,116.005924 L125.442092,121.157924 L117.842092,121.157924 C117.479424,121.563259 117.106094,121.952589 116.722092,122.325924 L126.498092,122.325924 L126.498092,124.277924 C126.498092,125.216595 126.463426,125.861922 126.394092,126.213924 C126.324759,126.565926 126.130094,126.843256 125.810092,127.045924 C125.490091,127.248592 124.956763,127.349924 124.210092,127.349924 L122.226092,127.349924 L121.970092,126.501924 L124.210092,126.501924 C124.668761,126.501924 124.996758,126.429925 125.194092,126.285924 C125.391427,126.141923 125.508759,125.915259 125.546092,125.605924 C125.583426,125.296589 125.602092,124.789927 125.602092,124.085924 L125.602092,123.157924 L125.602092,123.157924 Z M113.970092,126.885924 C114.460761,125.989919 114.850091,125.045929 115.138092,124.053924 L115.906092,124.261924 C115.660758,125.285929 115.303428,126.256586 114.834092,127.173924 L113.970092,126.885924 Z M117.202092,124.229924 L117.986092,124.085924 C118.359427,125.013929 118.647425,125.90992 118.850092,126.773924 L117.954092,126.917924 C117.815425,126.08592 117.564761,125.189929 117.202092,124.229924 L117.202092,124.229924 Z M119.650092,123.941924 L120.402092,123.749924 C120.818094,124.560595 121.148758,125.34992 121.394092,126.117924 L120.530092,126.325924 C120.348758,125.579253 120.055428,124.784595 119.650092,123.941924 L119.650092,123.941924 Z M122.146092,123.669924 L122.914092,123.413924 C123.287427,124.053927 123.591424,124.672588 123.826092,125.269924 L122.978092,125.541924 C122.786091,124.944588 122.508761,124.320594 122.146092,123.669924 L122.146092,123.669924 Z M125.906092,114.853924 L113.938092,114.853924 L113.938092,116.789924 L113.026092,116.789924 L113.026092,114.005924 L119.506092,114.005924 C119.431425,113.611255 119.32476,113.200593 119.186092,112.773924 L120.114092,112.677924 C120.242093,113.125926 120.343425,113.568588 120.418092,114.005924 L126.818092,114.005924 L126.818092,116.853924 L125.906092,116.853924 L125.906092,114.853924 Z M131.450665,119.349924 L145.562665,119.349924 L145.562665,120.261924 L131.450665,120.261924 L131.450665,119.349924 Z M151.731239,127.477924 L151.731239,117.541924 L155.635239,117.541924 L156.307239,115.701924 L149.731239,115.701924 L149.731239,114.789924 L154.083239,114.789924 L153.171239,112.837924 L154.067239,112.629924 L155.011239,114.789924 L158.947239,114.789924 L160.099239,112.645924 L161.011239,112.789924 L159.875239,114.789924 L164.291239,114.789924 L164.291239,115.701924 L157.267239,115.701924 L156.563239,117.541924 L162.387239,117.541924 L162.387239,127.477924 L161.475239,127.477924 L161.475239,126.389924 L152.643239,126.389924 L152.643239,127.477924 L151.731239,127.477924 Z M161.475239,123.669924 L152.643239,123.669924 L152.643239,125.477924 L161.475239,125.477924 L161.475239,123.669924 Z M152.643239,122.821924 L161.475239,122.821924 L161.475239,121.045924 L152.643239,121.045924 L152.643239,122.821924 Z M152.643239,120.197924 L161.475239,120.197924 L161.475239,118.453924 L152.643239,118.453924 L152.643239,120.197924 Z M168.075812,120.261924 L176.395812,120.261924 L176.395812,121.109924 L174.923812,121.109924 L174.923812,126.053924 C174.923812,126.853928 174.561149,127.253924 173.835812,127.253924 L172.203812,127.253924 L171.947812,126.357924 L173.579812,126.357924 C173.867813,126.357924 174.011812,126.208592 174.011812,125.909924 L174.011812,121.109924 L168.075812,121.109924 L168.075812,120.261924 Z M172.699812,115.477924 L172.699812,118.389924 L168.667812,118.389924 L168.667812,115.477924 L172.699812,115.477924 Z M171.867812,116.261924 L169.515812,116.261924 L169.515812,117.605924 L171.867812,117.605924 L171.867812,116.261924 Z M176.011812,118.229924 C177.035817,116.459248 177.69181,114.613933 177.979812,112.693924 L178.907812,112.741924 C178.779811,113.456594 178.609146,114.18192 178.395812,114.917924 L182.763812,114.917924 L182.763812,115.813924 L181.803812,119.461924 L180.971812,119.237924 L181.899812,115.813924 L178.075812,115.813924 C177.713143,116.827262 177.249148,117.824586 176.683812,118.805924 L176.011812,118.229924 Z M175.707812,126.677924 C177.787822,124.907248 178.827812,122.213942 178.827812,118.597924 L178.827812,117.413924 L179.739812,117.413924 L179.739812,118.597924 C179.739812,118.811258 179.734479,119.024589 179.723812,119.237924 C180.278481,122.395273 181.419803,124.832582 183.147812,126.549924 L182.571812,127.333924 C181.153138,125.787249 180.113148,123.909935 179.451812,121.701924 C178.982476,124.101936 177.93182,126.005917 176.299812,127.413924 L175.707812,126.677924 Z M168.667812,122.485924 L172.699812,122.485924 L172.699812,125.637924 L169.515812,125.637924 L169.515812,126.293924 L168.667812,126.293924 L168.667812,122.485924 Z M171.867812,123.253924 L169.515812,123.253924 L169.515812,124.853924 L171.867812,124.853924 L171.867812,123.253924 Z M168.011812,113.381924 L176.139812,113.381924 L176.139812,114.229924 L174.923812,114.229924 L174.923812,119.541924 L174.011812,119.541924 L174.011812,114.229924 L168.011812,114.229924 L168.011812,113.381924 Z" id="為這片土地，寫一首歌" fill="#4A4A4A" sketch:type="MSShapeGroup"></path>
        </g>
    </g>
</svg>